<?xml version="1.0" standalone="no"?>
<!DOCTYPE svg PUBLIC "-//W3C//DTD SVG 20010904//EN"
 "http://www.w3.org/TR/2001/REC-SVG-20010904/DTD/svg10.dtd">
<svg version="1.0" xmlns="http://www.w3.org/2000/svg"
 width="3333.000000pt" height="3333.000000pt" viewBox="0 0 3333.000000 3333.000000"
 preserveAspectRatio="xMidYMid meet">

<g transform="translate(0.000000,3333.000000) scale(0.100000,-0.100000)"
fill="#000000" stroke="none">
<path d="M6450 33319 c-47 -4 -139 -13 -205 -19 -111 -10 -299 -33 -370 -44
-16 -3 -61 -10 -100 -17 -60 -9 -119 -21 -360 -69 -47 -10 -215 -52 -297 -74
-32 -9 -84 -23 -115 -31 -65 -18 -480 -154 -503 -166 -8 -4 -69 -29 -135 -54
-66 -26 -138 -55 -160 -65 -22 -9 -69 -30 -105 -46 -97 -42 -447 -218 -553
-278 -982 -559 -1775 -1295 -2394 -2221 -193 -290 -403 -668 -533 -960 -12
-27 -33 -73 -46 -102 -48 -106 -154 -383 -209 -543 -57 -169 -78 -238 -121
-395 -13 -49 -28 -106 -33 -125 -20 -70 -61 -250 -81 -355 -6 -33 -14 -71 -17
-85 -5 -27 -19 -111 -33 -205 -31 -209 -43 -315 -62 -530 -14 -167 -15 -20361
0 -20530 27 -314 62 -565 122 -870 25 -129 109 -459 158 -620 71 -230 200
-579 283 -763 17 -37 42 -94 57 -127 81 -179 220 -441 345 -650 526 -875 1246
-1633 2084 -2193 149 -100 408 -262 418 -262 2 0 36 -19 77 -43 84 -49 442
-230 538 -271 36 -16 83 -37 105 -46 22 -10 94 -39 160 -65 66 -25 127 -50
135 -54 24 -12 439 -149 505 -166 33 -9 85 -23 115 -31 80 -22 249 -64 295
-74 329 -66 351 -70 526 -95 131 -18 351 -41 487 -51 56 -3 102 -10 102 -15 0
-14 38 -11 44 4 5 9 7 9 12 0 4 -10 2030 -13 10079 -13 8049 0 10075 3 10079
13 5 9 7 9 12 0 6 -15 44 -18 44 -4 0 5 46 12 103 15 165 11 386 35 525 56
172 27 184 29 487 90 46 10 215 52 295 74 30 8 82 22 115 31 66 17 481 154
505 166 8 4 69 29 135 54 66 26 138 55 160 65 22 9 69 30 105 46 96 41 454
222 538 271 41 24 75 43 77 43 10 0 269 162 418 262 838 560 1558 1318 2084
2193 125 209 264 471 345 650 15 33 40 90 57 127 83 184 212 533 283 763 49
161 133 491 158 620 61 310 95 558 122 880 15 170 14 20356 0 20520 -19 215
-31 321 -62 530 -14 94 -28 178 -33 205 -3 14 -11 52 -17 85 -20 105 -61 285
-81 355 -5 19 -20 76 -33 125 -43 157 -64 226 -121 395 -55 160 -161 437 -209
543 -13 29 -34 75 -46 102 -35 80 -176 363 -221 445 -676 1233 -1708 2234
-2954 2865 -132 67 -269 134 -305 150 -36 15 -83 36 -105 45 -22 10 -94 39
-160 65 -66 25 -127 50 -135 54 -23 12 -438 148 -502 166 -32 8 -84 22 -115
31 -83 22 -251 64 -298 74 -241 48 -300 60 -360 69 -38 7 -83 14 -100 17 -69
11 -258 34 -365 43 -63 6 -162 15 -220 21 -129 12 -20294 11 -20420 -1z
m20376 -1269 c462 -44 745 -94 1120 -201 811 -230 1515 -613 2184 -1188 104
-90 416 -399 494 -489 331 -387 501 -625 711 -997 119 -210 288 -566 346 -730
10 -27 32 -88 49 -135 60 -164 87 -251 158 -520 82 -305 143 -722 162 -1105
14 -276 14 -19754 0 -20030 -24 -479 -100 -926 -230 -1350 -12 -38 -25 -83
-30 -100 -13 -45 -25 -81 -60 -175 -17 -47 -36 -98 -40 -113 -17 -55 -144
-343 -213 -482 -666 -1348 -1837 -2375 -3262 -2862 -432 -147 -844 -231 -1389
-283 -152 -14 -20169 -14 -20322 0 -542 51 -956 135 -1389 283 -1422 486
-2593 1512 -3259 2856 -71 143 -198 431 -216 488 -4 15 -23 66 -40 113 -35 94
-47 130 -60 175 -5 17 -18 62 -30 100 -110 361 -165 647 -222 1165 -16 144
-24 19844 -8 20185 16 350 53 647 124 980 29 132 111 434 151 550 14 39 22 62
84 232 136 375 388 851 645 1218 137 197 202 279 422 537 78 90 390 399 494
489 231 198 428 347 651 492 119 77 248 157 254 157 2 0 41 22 87 48 325 187
776 373 1192 491 367 104 662 158 1101 200 134 12 20205 13 20341 1z"/>
<path d="M11918 26379 c-109 -25 -236 -124 -290 -225 -58 -108 -58 -103 -58
-891 l0 -723 -3038 0 c-3316 0 -3086 4 -3204 -56 -63 -32 -144 -112 -181 -178
-61 -110 -57 48 -57 -2273 l0 -2123 -249 0 c-136 0 -273 -4 -302 -10 -174 -32
-329 -180 -368 -351 -7 -29 -11 -618 -11 -1696 l0 -1652 -523 -3 -523 -3 -78
-38 c-132 -66 -228 -185 -256 -320 -7 -37 -9 -898 -7 -2932 l2 -2880 22 -75
c105 -370 394 -630 762 -685 79 -12 271 -15 1063 -15 l968 0 5 -22 c3 -13 12
-59 21 -103 53 -266 192 -610 347 -861 459 -742 1203 -1212 2082 -1314 122
-14 561 -5 680 14 434 70 791 207 1141 440 323 214 646 551 840 878 159 268
268 538 329 818 15 69 29 131 31 137 3 10 1132 13 5604 13 l5600 0 0 -21 c0
-38 68 -302 105 -409 147 -422 354 -750 669 -1065 237 -237 462 -399 741 -535
399 -194 789 -282 1235 -279 353 3 635 53 948 170 856 319 1506 1046 1727
1929 18 74 36 152 40 173 l6 37 967 0 c1043 0 1077 2 1227 53 290 99 511 338
597 642 l23 80 3 2035 c2 1438 0 2058 -8 2112 -33 229 -163 444 -359 592 l-54
41 -3766 5 c-3630 5 -3768 6 -3821 23 -168 58 -294 207 -320 382 -7 47 -10
615 -8 1725 l3 1655 23 67 c90 267 395 391 651 265 66 -32 153 -118 189 -185
65 -123 62 -33 62 -1589 l0 -1413 2495 0 c1372 0 2495 4 2495 8 0 5 -257 1037
-570 2293 -382 1529 -583 2313 -606 2374 -174 440 -539 746 -1020 857 l-99 23
-2980 3 c-2189 2 -2996 0 -3040 -8 -91 -18 -179 -64 -243 -129 -66 -65 -120
-168 -128 -239 -3 -26 -6 -263 -7 -527 l-2 -480 -232 -3 -233 -2 0 3042 c0
2014 -4 3058 -11 3087 -30 130 -127 247 -255 308 l-79 38 -752 3 -753 3 -2
-1668 c-3 -1613 -4 -1670 -22 -1718 -41 -107 -135 -219 -222 -263 -112 -57
-270 -67 -379 -25 -27 11 -315 196 -639 412 l-588 393 -587 -391 c-329 -220
-611 -400 -641 -412 -77 -30 -198 -36 -280 -15 -151 39 -271 153 -324 309 -15
44 -16 201 -16 1713 l0 1664 -737 -1 c-406 -1 -755 -5 -775 -10z m-4978 -3957
c0 -1298 -2 -1251 57 -1352 113 -193 335 -279 552 -214 38 11 219 126 638 405
322 215 591 393 598 395 7 3 271 -167 586 -377 315 -210 595 -392 623 -405
246 -114 539 17 630 281 21 59 21 76 24 1258 l3 1197 459 0 460 0 0 -1850 0
-1850 -2780 0 -2780 0 0 1850 0 1850 465 0 465 0 0 -1188z m12505 -4832 l0
-1385 -7177 -3 -7178 -2 0 1390 0 1390 7178 -2 7177 -3 0 -1385z m4358 -3747
c373 -177 354 -700 -31 -855 -57 -23 -60 -23 -585 -26 -338 -2 -548 1 -585 8
-235 43 -408 281 -372 512 27 177 147 321 315 380 46 16 99 17 620 15 l570 -2
68 -32z m-15292 -2283 c378 -39 749 -201 1041 -455 287 -249 510 -631 588
-1007 114 -550 -24 -1118 -380 -1553 -83 -102 -251 -259 -361 -338 -191 -137
-471 -257 -719 -309 -91 -19 -138 -22 -345 -23 -212 0 -253 3 -354 23 -702
142 -1263 666 -1440 1344 -49 188 -56 247 -56 478 1 180 4 234 23 332 144 759
752 1361 1502 1487 193 32 329 38 501 21z m16669 -1 c854 -87 1535 -738 1655
-1580 19 -136 19 -393 0 -528 -93 -642 -533 -1204 -1132 -1446 -237 -96 -438
-135 -694 -135 -313 0 -545 53 -814 184 -215 106 -371 220 -536 394 -421 443
-596 1075 -463 1671 125 557 497 1022 1019 1272 294 141 641 202 965 168z"/>
<path d="M8140 10625 c-161 -32 -312 -111 -438 -229 -225 -213 -326 -483 -293
-780 23 -207 108 -389 250 -539 163 -172 383 -271 626 -284 502 -25 923 347
969 857 8 81 -5 211 -30 306 -85 330 -369 599 -706 668 -93 19 -285 20 -378 1z"/>
<path d="M24810 10624 c-297 -64 -557 -283 -669 -564 -78 -197 -83 -448 -13
-650 101 -291 346 -514 657 -596 104 -27 341 -25 448 4 90 25 224 85 294 133
170 116 305 305 370 516 24 79 26 104 26 248 1 146 -2 168 -27 250 -105 347
-374 596 -714 661 -93 18 -286 17 -372 -2z"/>
<path d="M14350 25205 c0 -652 2 -1185 5 -1185 3 0 167 108 364 239 375 250
403 265 525 277 70 7 172 -13 238 -47 23 -12 192 -122 376 -245 184 -123 336
-224 338 -224 2 0 4 533 4 1185 l0 1185 -925 0 -925 0 0 -1185z"/>
</g>
</svg>
