<?xml version="1.0" standalone="no"?>
<!DOCTYPE svg PUBLIC "-//W3C//DTD SVG 20010904//EN"
 "http://www.w3.org/TR/2001/REC-SVG-20010904/DTD/svg10.dtd">
<svg version="1.0" xmlns="http://www.w3.org/2000/svg"
 width="3333.000000pt" height="3333.000000pt" viewBox="0 0 3333.000000 3333.000000"
 preserveAspectRatio="xMidYMid meet">

<g transform="translate(0.000000,3333.000000) scale(0.100000,-0.100000)"
fill="#000000" stroke="none">
<path d="M6450 33319 c-47 -4 -139 -13 -205 -19 -111 -10 -299 -33 -370 -44
-16 -3 -61 -10 -100 -17 -60 -9 -119 -21 -360 -69 -47 -10 -215 -52 -297 -74
-32 -9 -84 -23 -115 -31 -65 -18 -480 -154 -503 -166 -8 -4 -69 -29 -135 -54
-66 -26 -138 -55 -160 -65 -22 -9 -69 -30 -105 -46 -97 -42 -447 -218 -553
-278 -982 -559 -1775 -1295 -2394 -2221 -193 -290 -403 -668 -533 -960 -12
-27 -33 -73 -46 -102 -48 -106 -154 -383 -209 -543 -57 -169 -78 -238 -121
-395 -13 -49 -28 -106 -33 -125 -20 -70 -61 -250 -81 -355 -6 -33 -14 -71 -17
-85 -5 -27 -19 -111 -33 -205 -31 -209 -43 -315 -62 -530 -14 -167 -15 -20361
0 -20530 27 -314 62 -565 122 -870 25 -129 109 -459 158 -620 71 -230 200
-579 283 -763 17 -37 42 -94 57 -127 81 -179 220 -441 345 -650 526 -875 1246
-1633 2084 -2193 149 -100 408 -262 418 -262 2 0 36 -19 77 -43 84 -49 442
-230 538 -271 36 -16 83 -37 105 -46 22 -10 94 -39 160 -65 66 -25 127 -50
135 -54 24 -12 439 -149 505 -166 33 -9 85 -23 115 -31 80 -22 249 -64 295
-74 329 -66 351 -70 526 -95 131 -18 351 -41 487 -51 56 -3 102 -10 102 -15 0
-14 38 -11 44 4 5 9 7 9 12 0 4 -10 2030 -13 10079 -13 8049 0 10075 3 10079
13 5 9 7 9 12 0 6 -15 44 -18 44 -4 0 5 46 12 103 15 165 11 386 35 525 56
172 27 184 29 487 90 46 10 215 52 295 74 30 8 82 22 115 31 66 17 481 154
505 166 8 4 69 29 135 54 66 26 138 55 160 65 22 9 69 30 105 46 96 41 454
222 538 271 41 24 75 43 77 43 10 0 269 162 418 262 838 560 1558 1318 2084
2193 125 209 264 471 345 650 15 33 40 90 57 127 83 184 212 533 283 763 49
161 133 491 158 620 61 310 95 558 122 880 15 170 14 20356 0 20520 -19 215
-31 321 -62 530 -14 94 -28 178 -33 205 -3 14 -11 52 -17 85 -20 105 -61 285
-81 355 -5 19 -20 76 -33 125 -43 157 -64 226 -121 395 -55 160 -161 437 -209
543 -13 29 -34 75 -46 102 -35 80 -176 363 -221 445 -676 1233 -1708 2234
-2954 2865 -132 67 -269 134 -305 150 -36 15 -83 36 -105 45 -22 10 -94 39
-160 65 -66 25 -127 50 -135 54 -23 12 -438 148 -502 166 -32 8 -84 22 -115
31 -83 22 -251 64 -298 74 -241 48 -300 60 -360 69 -38 7 -83 14 -100 17 -69
11 -258 34 -365 43 -63 6 -162 15 -220 21 -129 12 -20294 11 -20420 -1z
m20376 -1269 c462 -44 745 -94 1120 -201 811 -230 1515 -613 2184 -1188 104
-90 416 -399 494 -489 331 -387 501 -625 711 -997 119 -210 288 -566 346 -730
10 -27 32 -88 49 -135 60 -164 87 -251 158 -520 82 -305 143 -722 162 -1105
14 -276 14 -19754 0 -20030 -24 -479 -100 -926 -230 -1350 -12 -38 -25 -83
-30 -100 -13 -45 -25 -81 -60 -175 -17 -47 -36 -98 -40 -113 -17 -55 -144
-343 -213 -482 -666 -1348 -1837 -2375 -3262 -2862 -432 -147 -844 -231 -1389
-283 -152 -14 -20169 -14 -20322 0 -542 51 -956 135 -1389 283 -1422 486
-2593 1512 -3259 2856 -71 143 -198 431 -216 488 -4 15 -23 66 -40 113 -35 94
-47 130 -60 175 -5 17 -18 62 -30 100 -110 361 -165 647 -222 1165 -16 144
-24 19844 -8 20185 16 350 53 647 124 980 29 132 111 434 151 550 14 39 22 62
84 232 136 375 388 851 645 1218 137 197 202 279 422 537 78 90 390 399 494
489 231 198 428 347 651 492 119 77 248 157 254 157 2 0 41 22 87 48 325 187
776 373 1192 491 367 104 662 158 1101 200 134 12 20205 13 20341 1z"/>
<path d="M14365 28028 c-120 -12 -308 -50 -425 -87 -327 -101 -582 -252 -790
-467 -193 -200 -298 -392 -368 -674 l-26 -105 -3 -1447 -4 -1448 -3642 -3
c-2840 -2 -3660 -6 -3722 -15 -416 -65 -743 -180 -1073 -380 -249 -149 -518
-380 -709 -607 -292 -347 -505 -788 -597 -1235 -57 -280 -54 187 -52 -7020 2
-6253 3 -6642 19 -6755 56 -382 139 -660 292 -970 241 -490 605 -884 1071
-1160 320 -190 717 -320 1080 -355 75 -7 3632 -10 11284 -9 9401 1 11193 3
11290 15 903 108 1683 646 2085 1438 152 300 243 601 297 986 16 116 24 13379
8 13575 -55 673 -347 1301 -830 1786 -439 441 -988 715 -1605 800 -70 10 -898
13 -3777 16 l-3688 3 0 1353 c0 1151 -2 1367 -15 1452 -43 286 -169 544 -369
752 -276 290 -631 464 -1116 550 -87 15 -288 17 -2310 19 -1288 1 -2253 -2
-2305 -8z m4703 -2870 l2 -1358 -2450 0 -2450 0 0 1360 0 1360 2448 -2 2447
-3 3 -1357z m-2261 -4748 c446 -1094 760 -2408 847 -3550 33 -420 39 -657 33
-1260 -7 -608 -20 -951 -47 -1205 -4 -38 -6 -71 -5 -73 1 -1 39 66 85 150 239
444 735 1200 1071 1634 475 613 1080 1227 1729 1755 268 217 779 590 844 615
22 9 21 -14 -10 -165 -175 -863 -522 -1857 -936 -2685 -307 -614 -479 -890
-940 -1508 -425 -567 -642 -860 -652 -877 -9 -14 75 29 219 113 109 63 491
250 695 341 756 336 1620 568 2475 665 196 22 457 41 464 34 20 -20 -565 -631
-844 -880 -509 -455 -1046 -842 -1589 -1144 -238 -132 -676 -336 -1035 -480
-126 -51 -187 -80 -175 -84 38 -11 433 -56 582 -66 104 -7 197 -20 285 -40
763 -176 1516 -492 2211 -927 195 -123 379 -254 369 -264 -13 -13 -345 -76
-571 -109 -264 -38 -490 -58 -820 -72 -502 -22 -1115 25 -1567 118 -341 71
-1027 252 -1285 339 -74 25 -149 47 -166 50 -122 16 -905 542 -1083 729 -19
20 -39 36 -43 36 -4 0 -8 -713 -8 -1585 l0 -1585 -220 0 -220 0 0 1551 0 1551
-67 -60 c-177 -155 -574 -423 -905 -610 -179 -101 -544 -215 -1183 -369 -399
-96 -498 -116 -757 -152 -317 -44 -590 -63 -933 -64 -307 -1 -399 3 -705 29
-368 31 -982 136 -965 164 3 5 54 42 113 83 574 396 1266 738 1932 955 363
119 891 246 1175 283 120 16 130 22 64 44 -164 53 -607 246 -904 393 -836 414
-1705 1067 -2373 1785 -167 179 -332 368 -332 381 0 6 18 5 265 -14 879 -70
1911 -336 2706 -698 229 -104 692 -332 792 -390 48 -28 87 -48 87 -45 0 3 -26
35 -58 72 -304 344 -901 1187 -1187 1677 -565 964 -1021 2134 -1259 3229 -47
216 -53 260 -35 253 55 -21 511 -358 770 -568 853 -693 1614 -1504 2186 -2330
223 -322 538 -828 706 -1133 38 -70 71 -126 73 -124 2 1 -1 84 -6 182 -45 894
-58 1760 -32 2120 67 912 183 1605 408 2435 144 529 377 1189 558 1585 l37 80
40 -90 c23 -50 66 -151 96 -225z"/>
</g>
</svg>
