<?xml version="1.0" standalone="no"?>
<!DOCTYPE svg PUBLIC "-//W3C//DTD SVG 20010904//EN"
 "http://www.w3.org/TR/2001/REC-SVG-20010904/DTD/svg10.dtd">
<svg version="1.0" xmlns="http://www.w3.org/2000/svg"
 width="3333.000000pt" height="3333.000000pt" viewBox="0 0 3333.000000 3333.000000"
 preserveAspectRatio="xMidYMid meet">

<g transform="translate(0.000000,3333.000000) scale(0.100000,-0.100000)"
fill="#000000" stroke="none">
<path d="M6450 33319 c-47 -4 -139 -13 -205 -19 -111 -10 -299 -33 -370 -44
-16 -3 -61 -10 -100 -17 -60 -9 -119 -21 -360 -69 -47 -10 -215 -52 -297 -74
-32 -9 -84 -23 -115 -31 -65 -18 -480 -154 -503 -166 -8 -4 -69 -29 -135 -54
-66 -26 -138 -55 -160 -65 -22 -9 -69 -30 -105 -46 -97 -42 -447 -218 -553
-278 -982 -559 -1775 -1295 -2394 -2221 -193 -290 -403 -668 -533 -960 -12
-27 -33 -73 -46 -102 -48 -106 -154 -383 -209 -543 -57 -169 -78 -238 -121
-395 -13 -49 -28 -106 -33 -125 -20 -70 -61 -250 -81 -355 -6 -33 -14 -71 -17
-85 -5 -27 -19 -111 -33 -205 -31 -209 -43 -315 -62 -530 -14 -167 -15 -20361
0 -20530 27 -314 62 -565 122 -870 25 -129 109 -459 158 -620 71 -230 200
-579 283 -763 17 -37 42 -94 57 -127 81 -179 220 -441 345 -650 526 -875 1246
-1633 2084 -2193 149 -100 408 -262 418 -262 2 0 36 -19 77 -43 84 -49 442
-230 538 -271 36 -16 83 -37 105 -46 22 -10 94 -39 160 -65 66 -25 127 -50
135 -54 24 -12 439 -149 505 -166 33 -9 85 -23 115 -31 80 -22 249 -64 295
-74 329 -66 351 -70 526 -95 131 -18 351 -41 487 -51 56 -3 102 -10 102 -15 0
-14 38 -11 44 4 5 9 7 9 12 0 4 -10 2030 -13 10079 -13 8049 0 10075 3 10079
13 5 9 7 9 12 0 6 -15 44 -18 44 -4 0 5 46 12 103 15 165 11 386 35 525 56
172 27 184 29 487 90 46 10 215 52 295 74 30 8 82 22 115 31 66 17 481 154
505 166 8 4 69 29 135 54 66 26 138 55 160 65 22 9 69 30 105 46 96 41 454
222 538 271 41 24 75 43 77 43 10 0 269 162 418 262 838 560 1558 1318 2084
2193 125 209 264 471 345 650 15 33 40 90 57 127 83 184 212 533 283 763 49
161 133 491 158 620 61 310 95 558 122 880 15 170 14 20356 0 20520 -19 215
-31 321 -62 530 -14 94 -28 178 -33 205 -3 14 -11 52 -17 85 -20 105 -61 285
-81 355 -5 19 -20 76 -33 125 -43 157 -64 226 -121 395 -55 160 -161 437 -209
543 -13 29 -34 75 -46 102 -35 80 -176 363 -221 445 -676 1233 -1708 2234
-2954 2865 -132 67 -269 134 -305 150 -36 15 -83 36 -105 45 -22 10 -94 39
-160 65 -66 25 -127 50 -135 54 -23 12 -438 148 -502 166 -32 8 -84 22 -115
31 -83 22 -251 64 -298 74 -241 48 -300 60 -360 69 -38 7 -83 14 -100 17 -69
11 -258 34 -365 43 -63 6 -162 15 -220 21 -129 12 -20294 11 -20420 -1z
m20376 -1269 c462 -44 745 -94 1120 -201 811 -230 1515 -613 2184 -1188 104
-90 416 -399 494 -489 331 -387 501 -625 711 -997 119 -210 288 -566 346 -730
10 -27 32 -88 49 -135 60 -164 87 -251 158 -520 82 -305 143 -722 162 -1105
14 -276 14 -19754 0 -20030 -24 -479 -100 -926 -230 -1350 -12 -38 -25 -83
-30 -100 -13 -45 -25 -81 -60 -175 -17 -47 -36 -98 -40 -113 -17 -55 -144
-343 -213 -482 -666 -1348 -1837 -2375 -3262 -2862 -432 -147 -844 -231 -1389
-283 -152 -14 -20169 -14 -20322 0 -542 51 -956 135 -1389 283 -1422 486
-2593 1512 -3259 2856 -71 143 -198 431 -216 488 -4 15 -23 66 -40 113 -35 94
-47 130 -60 175 -5 17 -18 62 -30 100 -110 361 -165 647 -222 1165 -16 144
-24 19844 -8 20185 16 350 53 647 124 980 29 132 111 434 151 550 14 39 22 62
84 232 136 375 388 851 645 1218 137 197 202 279 422 537 78 90 390 399 494
489 231 198 428 347 651 492 119 77 248 157 254 157 2 0 41 22 87 48 325 187
776 373 1192 491 367 104 662 158 1101 200 134 12 20205 13 20341 1z"/>
<path d="M17860 26543 c-163 -18 -323 -64 -464 -134 -139 -70 -237 -140 -346
-249 -152 -152 -258 -322 -325 -523 -63 -190 -65 -213 -65 -1014 l0 -723 445
0 445 0 0 453 c0 490 5 558 56 719 96 303 324 567 614 709 98 48 246 95 343
108 51 7 345 11 835 11 634 0 771 -3 844 -15 297 -52 571 -220 753 -463 70
-93 141 -230 179 -344 51 -152 56 -213 56 -714 l0 -464 451 0 451 0 -5 738
c-5 813 -4 805 -70 998 -70 205 -172 369 -322 520 -189 190 -397 302 -677 367
-93 21 -97 21 -1628 23 -844 0 -1551 -1 -1570 -3z"/>
<path d="M6395 26049 c-122 -12 -220 -34 -218 -47 117 -572 200 -1186 238
-1772 22 -338 30 -952 16 -1276 -12 -287 -14 -316 -37 -543 -8 -79 -14 -152
-14 -162 0 -19 36 -19 1358 -17 1350 3 1357 3 1355 23 -5 60 -33 411 -38 480
-10 135 -7 801 5 970 14 205 46 546 66 700 54 425 174 1044 280 1444 28 104
33 136 23 142 -23 14 -134 29 -216 29 -189 0 -320 -45 -650 -222 -364 -196
-583 -257 -825 -229 -246 27 -420 97 -837 334 -107 60 -219 118 -250 127 -74
23 -159 29 -256 19z"/>
<path d="M18641 25519 c-270 -36 -501 -199 -626 -440 -84 -163 -87 -188 -92
-716 l-5 -463 1472 0 1472 0 -4 468 c-5 532 -6 543 -92 710 -111 213 -293 359
-531 424 -79 22 -92 22 -805 24 -399 1 -754 -2 -789 -7z"/>
<path d="M9976 23504 c-174 -32 -338 -102 -480 -208 l-79 -58 6 -222 c8 -241
21 -474 40 -661 l12 -120 315 -6 c343 -6 359 -8 485 -71 l59 -31 53 59 c322
357 471 798 426 1267 l-6 67 -376 -1 c-279 -1 -396 -4 -455 -15z"/>
<path d="M11196 23378 c16 -342 -59 -680 -221 -995 -87 -171 -169 -290 -300
-436 l-93 -104 14 -33 c25 -58 43 -143 48 -220 19 -299 -172 -582 -463 -683
-78 -28 -100 -31 -243 -35 -108 -3 -158 -8 -158 -16 0 -6 23 -80 52 -163 l52
-153 9918 0 9918 0 0 380 0 380 -132 0 c-545 1 -1033 199 -1413 575 -307 304
-505 690 -569 1110 -20 135 -29 330 -19 443 l9 92 -8204 0 -8203 0 7 -142z"/>
<path d="M27972 23503 c-4 -10 -7 -106 -7 -213 1 -208 11 -283 61 -457 162
-560 622 -990 1199 -1120 88 -19 149 -26 303 -30 l193 -6 -3 469 -4 469 -27
90 c-124 406 -432 697 -837 791 -63 14 -141 18 -473 21 -377 4 -397 3 -405
-14z"/>
<path d="M5561 21844 c-90 -24 -148 -70 -190 -148 -85 -161 -17 -352 152 -426
45 -20 69 -20 2294 -18 2146 3 2249 4 2281 21 55 30 112 88 140 141 37 70 39
198 4 267 -31 64 -85 117 -151 148 l-56 26 -2210 2 c-1913 2 -2217 0 -2264
-13z"/>
<path d="M6895 20872 l-800 -2 -70 -213 c-250 -764 -601 -1480 -1150 -2342
-59 -93 -221 -338 -359 -542 -705 -1046 -794 -1184 -998 -1544 -454 -798 -657
-1528 -635 -2274 19 -615 137 -1179 363 -1737 332 -819 894 -1546 1609 -2081
707 -529 1526 -852 2416 -953 192 -21 693 -30 886 -15 714 56 1350 240 1968
569 950 506 1733 1345 2168 2322 231 518 363 1028 413 1598 22 249 15 675 -15
857 -99 608 -379 1258 -891 2070 -101 160 -350 531 -524 780 -88 127 -207 298
-265 380 -400 575 -604 891 -813 1260 -200 352 -218 392 -518 1143 l-292 732
-847 -2 c-465 -2 -1206 -4 -1646 -6z m1222 -4847 c127 -20 328 -74 447 -122
456 -181 840 -526 1065 -953 156 -297 228 -573 238 -906 11 -358 -52 -653
-207 -970 -202 -415 -534 -748 -945 -950 -521 -254 -1128 -282 -1659 -74 -663
259 -1140 829 -1282 1530 -48 235 -48 567 0 802 182 894 912 1558 1821 1657
118 13 394 5 522 -14z m-3837 -2575 c52 -27 62 -44 124 -212 76 -205 107 -276
210 -481 306 -604 737 -1118 1237 -1473 279 -199 546 -333 894 -450 145 -49
170 -64 202 -120 40 -69 24 -174 -34 -226 -28 -25 -88 -48 -126 -48 -43 0
-156 34 -327 98 -833 313 -1558 957 -2060 1832 -148 256 -297 583 -375 818
-32 97 -29 144 10 204 49 74 161 101 245 58z"/>
<path d="M7635 15648 c-354 -32 -718 -199 -981 -451 -261 -249 -419 -531 -496
-887 -19 -92 -22 -133 -22 -330 0 -251 12 -336 79 -536 121 -362 383 -693 710
-894 673 -414 1555 -297 2097 279 457 486 584 1187 325 1802 -89 210 -199 372
-367 539 -285 284 -645 447 -1055 480 -132 11 -150 10 -290 -2z m255 -637 l0
-59 47 -7 c185 -27 333 -153 388 -327 14 -45 24 -83 21 -85 -5 -5 -257 -42
-288 -43 -10 0 -18 6 -18 13 0 33 -55 121 -93 148 -22 16 -44 29 -49 29 -4 0
-8 -107 -8 -237 l0 -238 86 -27 c290 -93 410 -227 421 -473 8 -165 -35 -295
-134 -405 -73 -82 -207 -154 -328 -178 l-40 -8 -3 -112 -3 -112 -84 0 -85 0 0
109 0 109 -71 16 c-144 32 -273 119 -344 231 -37 58 -80 171 -90 236 l-7 45
139 17 c76 10 145 17 154 17 11 0 24 -21 38 -60 32 -86 128 -200 170 -200 8 0
11 72 9 252 l-3 252 -73 27 c-137 51 -236 122 -297 215 -138 208 -116 486 52
652 67 66 138 104 243 131 l75 19 3 56 3 56 84 0 85 0 0 -59z"/>
<path d="M7664 14661 c-53 -39 -74 -63 -90 -108 -33 -94 -4 -191 74 -250 74
-56 72 -60 72 177 0 116 -4 210 -8 210 -5 0 -27 -13 -48 -29z"/>
<path d="M7890 13619 l0 -240 23 7 c178 55 248 271 129 398 -26 28 -114 76
-139 76 -10 0 -13 -55 -13 -241z"/>
<path d="M10040 20156 c0 -2 38 -89 86 -193 85 -187 252 -519 324 -643 l38
-65 9621 3 9621 2 0 450 0 450 -9845 0 c-5415 0 -9845 -2 -9845 -4z"/>
<path d="M10736 18833 c130 -225 354 -559 839 -1253 507 -725 778 -1159 1010
-1615 277 -548 429 -1007 492 -1490 22 -168 24 -650 5 -860 -49 -519 -161
-997 -345 -1465 -448 -1145 -1294 -2112 -2367 -2706 l-124 -69 8669 -3 c4768
-1 8672 1 8675 5 4 5 3 55 -1 113 -18 228 23 528 102 756 219 633 741 1117
1384 1283 159 41 249 53 453 58 l202 6 0 3643 0 3644 -4090 0 -4090 0 0 -1060
c0 -969 -1 -1062 -17 -1094 -11 -24 -269 -263 -797 -738 -429 -387 -887 -800
-1018 -918 -181 -163 -250 -219 -286 -232 -51 -19 -97 -16 -146 9 -17 9 -217
187 -445 397 -228 210 -474 435 -546 501 -72 66 -319 293 -549 505 -230 212
-432 396 -448 408 -16 13 -37 41 -48 63 -20 37 -20 63 -20 1099 l0 1060 -3261
0 -3261 0 28 -47z"/>
<path d="M17600 17886 l0 -994 653 -599 c358 -329 686 -629 727 -668 151 -142
382 -350 391 -353 4 -2 122 100 261 225 254 230 598 541 1216 1096 l332 300 0
993 0 994 -1790 0 -1790 0 0 -994z m1955 668 c102 -26 192 -80 281 -169 90
-89 141 -178 168 -295 33 -139 11 -316 -54 -439 l-31 -58 143 -288 c127 -258
142 -293 142 -339 0 -62 -23 -106 -77 -150 l-39 -31 -684 -3 c-664 -2 -685 -2
-723 17 -74 38 -120 124 -106 198 3 19 69 160 146 315 l140 281 -35 68 c-49
97 -70 199 -63 318 6 122 33 208 95 302 108 165 256 257 472 293 41 7 160 -4
225 -20z"/>
<path d="M19307 18186 c-121 -45 -194 -173 -167 -293 13 -58 24 -79 67 -127
44 -49 63 -94 63 -150 0 -36 -18 -81 -100 -246 -55 -110 -100 -203 -100 -205
0 -3 144 -5 320 -5 176 0 320 2 320 5 0 2 -45 95 -100 205 -126 253 -129 285
-39 392 22 26 46 63 55 83 19 46 20 151 1 196 -21 50 -73 107 -121 131 -51 26
-148 33 -199 14z"/>
<path d="M29465 11213 c-672 -55 -1220 -482 -1424 -1108 -61 -188 -76 -289
-76 -510 0 -104 3 -198 7 -207 7 -17 33 -18 345 -18 474 0 576 15 788 120 315
154 526 428 601 780 13 59 17 166 21 506 l5 431 -68 6 c-68 7 -121 7 -199 0z"/>
<path d="M6214 8155 c-72 -36 -99 -81 -99 -165 0 -83 31 -137 97 -169 l44 -21
8398 0 c8364 0 8397 0 8436 20 21 11 51 36 67 57 25 33 28 45 28 113 0 68 -3
81 -27 112 -15 20 -47 45 -71 57 l-43 21 -8390 0 -8390 0 -50 -25z"/>
<path d="M5543 7165 c-44 -27 -93 -107 -93 -153 0 -85 64 -171 143 -190 62
-16 5523 -17 5579 -2 147 41 185 243 62 336 l-37 29 -2806 2 -2806 3 -42 -25z"/>
<path d="M16042 7159 c-111 -23 -179 -146 -138 -254 21 -53 71 -100 123 -114
53 -15 11613 -15 11666 0 84 23 145 115 135 204 -7 59 -48 119 -98 145 -39 20
-41 20 -5849 23 -3196 1 -5823 -1 -5839 -4z"/>
<path d="M29515 7160 l-760 -5 -35 -22 c-78 -48 -108 -165 -64 -248 11 -22 40
-53 63 -70 l43 -30 783 0 783 0 44 30 c50 35 88 102 88 155 0 86 -70 172 -153
189 -18 3 -374 4 -792 1z"/>
</g>
</svg>
