<?xml version="1.0" standalone="no"?>
<!DOCTYPE svg PUBLIC "-//W3C//DTD SVG 20010904//EN"
 "http://www.w3.org/TR/2001/REC-SVG-20010904/DTD/svg10.dtd">
<svg version="1.0" xmlns="http://www.w3.org/2000/svg"
 width="3333.000000pt" height="3333.000000pt" viewBox="0 0 3333.000000 3333.000000"
 preserveAspectRatio="xMidYMid meet">

<g transform="translate(0.000000,3333.000000) scale(0.100000,-0.100000)"
fill="#000000" stroke="none">
<path d="M6480 33319 c-1384 -90 -2698 -588 -3795 -1438 -447 -346 -890 -789
-1236 -1236 -857 -1106 -1349 -2413 -1439 -3820 -14 -225 -14 -20098 0 -20325
98 -1548 689 -2977 1717 -4153 138 -157 463 -482 620 -620 1178 -1030 2601
-1618 4158 -1717 222 -14 20098 -14 20320 0 1978 126 3766 1058 5003 2607 884
1109 1401 2454 1492 3883 14 227 14 20100 0 20325 -90 1407 -582 2714 -1439
3820 -346 447 -789 890 -1236 1236 -1106 857 -2413 1349 -3820 1439 -194 12
-20155 11 -20345 -1z m20300 -1269 c1784 -122 3380 -1057 4363 -2555 532 -812
840 -1732 907 -2715 14 -200 14 -20030 0 -20230 -122 -1785 -1055 -3377 -2555
-4363 -810 -532 -1732 -840 -2715 -907 -200 -14 -20030 -14 -20230 0 -1785
122 -3377 1055 -4363 2555 -531 810 -840 1732 -907 2715 -14 200 -14 20030 0
20230 67 983 375 1903 907 2715 977 1489 2578 2431 4338 2554 177 12 20075 13
20255 1z"/>
<path d="M14545 30084 c-433 -45 -799 -197 -1129 -466 -216 -177 -419 -441
-541 -701 -50 -106 -106 -265 -125 -350 -7 -31 -18 -61 -24 -65 -6 -5 -49 -14
-96 -21 -156 -24 -480 -90 -664 -137 -655 -166 -1078 -387 -1189 -621 -66
-140 -34 -272 95 -401 106 -105 225 -181 423 -269 260 -117 694 -242 1105
-319 113 -21 206 -39 208 -40 2 -1 7 -60 13 -130 41 -562 299 -1076 722 -1439
373 -321 815 -495 1302 -512 1034 -37 1935 675 2139 1689 14 67 28 166 31 218
10 158 14 180 34 180 82 0 665 134 896 205 503 156 829 351 923 552 39 85 38
185 -3 268 -139 280 -708 535 -1571 704 -110 21 -237 45 -284 52 -47 7 -90 16
-96 21 -6 4 -17 34 -24 65 -38 172 -152 428 -267 603 -318 482 -810 800 -1383
895 -91 15 -412 28 -495 19z"/>
<path d="M21805 25176 c-27 -12 -67 -41 -87 -64 -59 -65 -68 -113 -68 -359 l0
-213 -1402 0 -1403 0 120 -63 c336 -177 568 -347 831 -611 160 -161 256 -274
373 -438 l62 -88 684 0 c664 0 685 -1 685 -19 0 -38 -41 -331 -71 -501 -116
-667 -296 -1272 -570 -1916 -61 -142 -49 -242 36 -328 83 -82 -36 -77 1595
-74 l1445 3 53 30 c58 31 101 84 122 149 21 65 7 138 -53 276 -232 534 -433
1212 -542 1830 -26 148 -75 495 -75 530 0 20 8 20 408 20 403 0 408 0 452 23
26 13 57 40 75 65 l30 44 0 461 c0 449 -1 463 -21 502 -11 22 -40 54 -63 70
l-43 30 -444 3 -444 3 0 212 c0 246 -9 294 -68 359 -20 23 -59 52 -87 64 l-50
24 -715 0 -715 0 -50 -24z"/>
<path d="M6890 24950 c-257 -31 -508 -164 -657 -349 l-48 -60 -1235 0 c-1076
-1 -1244 -3 -1295 -16 -222 -57 -400 -234 -450 -446 -53 -227 36 -478 218
-615 73 -54 93 -65 177 -96 l65 -23 1244 -5 1245 -5 126 -305 c70 -168 304
-728 520 -1245 216 -517 473 -1131 570 -1365 280 -669 701 -1679 779 -1864 39
-92 87 -197 106 -232 202 -361 637 -563 1056 -489 220 38 396 132 550 291 98
103 110 121 290 445 249 449 547 980 986 1757 657 1163 744 1316 766 1340 27
30 71 29 102 -3 24 -23 25 -28 25 -175 l0 -150 400 0 400 0 0 1300 0 1300
-493 0 c-273 0 -542 -5 -603 -11 -654 -63 -1127 -367 -1538 -986 -114 -174
-177 -285 -326 -578 -105 -207 -595 -1140 -607 -1154 -2 -2 -5 -2 -8 1 -3 3
-104 239 -224 524 -120 286 -320 761 -445 1056 -124 295 -226 539 -226 543 0
3 231 5 513 5 l512 1 80 120 c302 454 662 799 1075 1031 l85 48 -1398 0 -1398
0 -87 91 c-47 50 -113 110 -147 134 -140 99 -313 165 -488 184 -105 12 -121
12 -217 1z"/>
<path d="M13730 22640 l0 -1300 990 0 990 0 0 1300 0 1300 -990 0 -990 0 0
-1300z"/>
<path d="M16610 22641 l0 -1301 400 0 400 0 0 118 c0 109 2 123 28 173 17 35
42 64 70 83 95 67 232 36 295 -65 l28 -47 3 -3923 2 -3924 21 -86 c46 -184
133 -352 252 -482 166 -180 419 -300 666 -315 197 -12 348 15 512 93 278 131
482 382 555 682 l21 88 0 4010 c0 3782 -1 4017 -17 4130 -118 796 -624 1483
-1351 1831 -213 101 -426 168 -680 210 -83 14 -195 18 -652 21 l-553 4 0
-1300z"/>
<path d="M12032 12358 l3 -8083 32 -117 c61 -228 163 -402 333 -568 659 -648
1766 -353 2023 540 14 47 30 126 36 175 8 64 11 1480 11 4993 l0 4902 260 0
260 0 3 -4947 2 -4948 22 -90 c60 -250 166 -447 332 -613 550 -553 1458 -459
1888 195 95 145 149 283 179 461 16 90 17 523 11 5957 -4 3223 -10 6842 -14
8043 l-6 2182 -2689 0 -2688 0 2 -8082z m4039 6911 c43 -15 97 -65 115 -106
21 -50 20 -1820 -1 -1911 -51 -216 -241 -401 -460 -447 -104 -22 -1906 -22
-2010 0 -218 46 -405 228 -459 446 -14 58 -16 171 -16 973 0 1001 -4 940 63
1003 18 17 46 35 62 41 44 15 2660 16 2706 1z"/>
<path d="M21757 13254 c-266 -48 -498 -225 -613 -469 -81 -173 -78 -132 -81
-848 -3 -555 -6 -638 -18 -633 -8 3 -153 88 -323 189 -367 220 -372 222 -448
236 -160 29 -333 -70 -395 -227 -23 -55 -23 -69 -27 -436 -2 -256 0 -401 8
-445 13 -73 57 -165 98 -204 15 -14 268 -199 562 -412 l535 -387 5 -2842 c5
-2669 6 -2845 23 -2901 27 -95 111 -254 171 -327 129 -156 323 -266 526 -298
43 -6 859 -10 2416 -10 2095 0 2361 2 2434 16 166 31 296 97 418 210 124 114
207 252 254 419 22 80 22 82 28 1115 l5 1035 224 375 c123 206 418 701 656
1100 237 399 721 1211 1075 1805 859 1442 819 1373 835 1429 19 62 19 139 2
197 -8 24 -78 181 -157 347 -160 338 -182 370 -291 422 -113 53 -243 47 -346
-18 -28 -17 -142 -139 -307 -327 -316 -361 -1475 -1688 -1601 -1834 l-90 -103
-5 1558 -5 1559 -23 80 c-28 94 -78 206 -121 269 -133 193 -349 329 -581 366
-43 6 -854 10 -2415 9 -1971 -1 -2363 -3 -2428 -15z"/>
</g>
</svg>
