<?xml version="1.0" encoding="iso-8859-1"?>
<!-- Uploaded to: SVG Repo, www.svgrepo.com, Generator: SVG Repo Mixer Tools -->
<!DOCTYPE svg PUBLIC "-//W3C//DTD SVG 1.1//EN" "http://www.w3.org/Graphics/SVG/1.1/DTD/svg11.dtd">
<svg fill="#000000" height="800px" width="800px" version="1.1" id="Capa_1" xmlns="http://www.w3.org/2000/svg" xmlns:xlink="http://www.w3.org/1999/xlink" 
	 viewBox="0 0 395 395" xml:space="preserve">
<g>
	<path d="M313.001,0H81.999C36.785,0,0,36.784,0,81.998v230.993C0,358.211,36.785,395,81.999,395h231.002
		C358.216,395,395,358.211,395,312.991V81.998C395,36.784,358.216,0,313.001,0z M81.999,15h231.002
		C349.945,15,380,45.055,380,81.998v222.369c-9.706,0.955-15.587,3.928-20.874,6.61c-5.583,2.833-9.993,5.071-19.764,5.071
		c-9.773,0-14.184-2.238-19.768-5.072c-6.4-3.248-13.652-6.928-27.527-6.928s-21.128,3.682-27.527,6.929
		c-5.582,2.833-9.991,5.071-19.758,5.071c-9.771,0-14.181-2.238-19.764-5.071c-6.399-3.247-13.652-6.929-27.527-6.929
		c-13.871,0-21.122,3.681-27.52,6.928c-5.583,2.833-9.993,5.072-19.765,5.072c-9.771,0-14.181-2.238-19.765-5.072
		c-6.397-3.248-13.649-6.928-27.521-6.928c-13.871,0-21.123,3.681-27.521,6.928c-5.584,2.834-9.995,5.072-19.77,5.072
		c-9.769,0-14.178-2.238-19.761-5.071c-5.286-2.683-11.166-5.655-20.868-6.61V81.998C15,45.055,45.056,15,81.999,15z M313.001,380
		H81.999c-33.986,0-62.123-25.446-66.413-58.286c5.151,0.82,8.544,2.532,12.522,4.551c6.398,3.248,13.65,6.928,27.52,6.928
		c13.876,0,21.129-3.681,27.528-6.929c5.583-2.833,9.993-5.071,19.763-5.071c9.77,0,14.179,2.238,19.762,5.071
		c6.398,3.248,13.65,6.929,27.523,6.929c13.874,0,21.126-3.681,27.524-6.929c5.582-2.833,9.992-5.071,19.761-5.071
		c9.773,0,14.184,2.238,19.769,5.072c6.398,3.247,13.65,6.928,27.522,6.928c13.869,0,21.12-3.681,27.518-6.928
		c5.584-2.834,9.994-5.072,19.768-5.072c9.774,0,14.185,2.238,19.77,5.072c6.4,3.248,13.652,6.928,27.526,6.928
		c13.872,0,21.124-3.681,27.522-6.928c3.98-2.02,7.374-3.732,12.529-4.552C375.124,354.554,346.987,380,313.001,380z"/>
	<path d="M61.05,203.879c5.091-1.877,9.867-2.79,14.601-2.79c11.092,0,20.958,5.009,33.099,11.545
		c4.845,26.306,26.111,43.866,27.043,44.623c0.899,0.731,2.016,1.121,3.155,1.121c0.331,0,0.662-0.033,0.992-0.1
		c1.466-0.296,2.722-1.234,3.423-2.554c12.97-24.41,16.977-43.746,18.97-62.534c22.289-2.74,43.54-7.519,63.507-14.206l-1.291,1.15
		c-1.029,0.916-1.634,2.216-1.673,3.593c-0.039,1.377,0.492,2.709,1.468,3.682c1.032,1.029,10.384,10.058,20.708,10.058
		c1.19,0,2.364-0.122,3.488-0.361c4.134-0.88,9.618-4.803,18.95-27.218c1.585-3.807,3.036-7.562,4.278-10.908
		c26.116-14.345,48.976-32.642,67.713-54.558c1.781-2.083,1.553-5.213-0.512-7.016c-19.665-17.168-45.847-26.241-75.716-26.241
		c-12.113,0-24.324,1.564-36.191,4.491c-10.494-3.765-30.197-10.278-40.943-10.278c-3.763,0-6.547,0.767-8.514,2.347
		c-9.238,7.421-7.957,23.114-7.78,24.879c0.137,1.371,0.833,2.624,1.925,3.464c0.88,0.678,1.954,1.038,3.05,1.038
		c0.263,0,0.527-0.021,0.792-0.063l3.335-0.535c-8.412,5.528-16.116,11.843-22.829,18.846c-12.27,12.8-20.859,27.27-25.539,42.806
		c-7.029,3.008-14.856,5.222-24.213,7.392c-21.907,5.082-35.666,13.299-50.765,30.317c-1.521,1.715-1.682,4.245-0.389,6.138
		C56.484,203.9,58.898,204.671,61.05,203.879z M293.992,91.127c4.142,0,7.5,3.36,7.5,7.5c0,4.14-3.358,7.5-7.5,7.5
		c-4.143,0-7.501-3.36-7.501-7.5C286.491,94.487,289.85,91.127,293.992,91.127z"/>
</g>
</svg>