<?xml version="1.0" encoding="iso-8859-1"?>
<!-- Uploaded to: SVG Repo, www.svgrepo.com, Generator: SVG Repo Mixer Tools -->
<!DOCTYPE svg PUBLIC "-//W3C//DTD SVG 1.1//EN" "http://www.w3.org/Graphics/SVG/1.1/DTD/svg11.dtd">
<svg fill="#000000" height="800px" width="800px" version="1.1" id="Capa_1" xmlns="http://www.w3.org/2000/svg" xmlns:xlink="http://www.w3.org/1999/xlink" 
	 viewBox="0 0 395 395" xml:space="preserve">
<g>
	<g>
		<path d="M313.002,395H82c-45.215,0-82-36.789-82-82.009V81.998C0,36.784,36.785,0,82,0h231.002C358.216,0,395,36.784,395,81.998
			v230.993C395,358.211,358.216,395,313.002,395z M82,15c-36.944,0-67,30.056-67,66.998v230.993C15,349.94,45.056,380,82,380
			h231.002C349.944,380,380,349.94,380,312.991V81.998C380,45.056,349.944,15,313.002,15H82z"/>
	</g>
	<g>
		<g>
			<path d="M164.605,164.927c-10.645,16.319-18.925,33.843-26.682,51.672c-15.067,34.623-31.103,68.226-55.929,97.069
				c8.211,6.276,16.428,12.554,24.64,18.832c20.314-29.724,38.005-60.325,54.442-92.347c15.062-29.342,31.71-58.43,59.807-77.137
				c-16.599-8.457-33.203-16.913-49.803-25.369C174.035,147.149,169.326,157.153,164.605,164.927z"/>
		</g>
		<g>
			<path d="M274.01,93.647L210.509,62.5l-33.091,67.466l63.507,31.143c9.449,9.126,18.894,18.248,28.339,27.373
				c23.488-25.331,38.091-55.104,43.741-89.18C300.005,97.417,287.009,95.53,274.01,93.647z"/>
		</g>
	</g>
</g>
</svg>