<?xml version="1.0" standalone="no"?>
<!DOCTYPE svg PUBLIC "-//W3C//DTD SVG 20010904//EN"
 "http://www.w3.org/TR/2001/REC-SVG-20010904/DTD/svg10.dtd">
<svg version="1.0" xmlns="http://www.w3.org/2000/svg"
 width="3333.000000pt" height="3333.000000pt" viewBox="0 0 3333.000000 3333.000000"
 preserveAspectRatio="xMidYMid meet">

<g transform="translate(0.000000,3333.000000) scale(0.100000,-0.100000)"
fill="#000000" stroke="none">
<path d="M6450 33319 c-47 -4 -139 -13 -205 -19 -111 -10 -299 -33 -370 -44
-16 -3 -61 -10 -100 -17 -60 -9 -119 -21 -360 -69 -47 -10 -215 -52 -297 -74
-32 -9 -84 -23 -115 -31 -65 -18 -480 -154 -503 -166 -8 -4 -69 -29 -135 -54
-66 -26 -138 -55 -160 -65 -22 -9 -69 -30 -105 -46 -97 -42 -447 -218 -553
-278 -982 -559 -1775 -1295 -2394 -2221 -193 -290 -403 -668 -533 -960 -12
-27 -33 -73 -46 -102 -48 -106 -154 -383 -209 -543 -57 -169 -78 -238 -121
-395 -13 -49 -28 -106 -33 -125 -20 -70 -61 -250 -81 -355 -6 -33 -14 -71 -17
-85 -5 -27 -19 -111 -33 -205 -31 -209 -43 -315 -62 -530 -14 -167 -15 -20361
0 -20530 27 -314 62 -565 122 -870 25 -129 109 -459 158 -620 71 -230 200
-579 283 -763 17 -37 42 -94 57 -127 81 -179 220 -441 345 -650 526 -875 1246
-1633 2084 -2193 149 -100 408 -262 418 -262 2 0 36 -19 77 -43 84 -49 442
-230 538 -271 36 -16 83 -37 105 -46 22 -10 94 -39 160 -65 66 -25 127 -50
135 -54 24 -12 439 -149 505 -166 33 -9 85 -23 115 -31 80 -22 249 -64 295
-74 329 -66 351 -70 526 -95 131 -18 351 -41 487 -51 56 -3 102 -10 102 -15 0
-14 38 -11 44 4 5 9 7 9 12 0 4 -10 2030 -13 10079 -13 8049 0 10075 3 10079
13 5 9 7 9 12 0 6 -15 44 -18 44 -4 0 5 46 12 103 15 165 11 386 35 525 56
172 27 184 29 487 90 46 10 215 52 295 74 30 8 82 22 115 31 66 17 481 154
505 166 8 4 69 29 135 54 66 26 138 55 160 65 22 9 69 30 105 46 96 41 454
222 538 271 41 24 75 43 77 43 10 0 269 162 418 262 838 560 1558 1318 2084
2193 125 209 264 471 345 650 15 33 40 90 57 127 83 184 212 533 283 763 49
161 133 491 158 620 61 310 95 558 122 880 15 170 14 20356 0 20520 -19 215
-31 321 -62 530 -14 94 -28 178 -33 205 -3 14 -11 52 -17 85 -20 105 -61 285
-81 355 -5 19 -20 76 -33 125 -43 157 -64 226 -121 395 -55 160 -161 437 -209
543 -13 29 -34 75 -46 102 -35 80 -176 363 -221 445 -676 1233 -1708 2234
-2954 2865 -132 67 -269 134 -305 150 -36 15 -83 36 -105 45 -22 10 -94 39
-160 65 -66 25 -127 50 -135 54 -23 12 -438 148 -502 166 -32 8 -84 22 -115
31 -83 22 -251 64 -298 74 -241 48 -300 60 -360 69 -38 7 -83 14 -100 17 -69
11 -258 34 -365 43 -63 6 -162 15 -220 21 -129 12 -20294 11 -20420 -1z
m20376 -1269 c462 -44 745 -94 1120 -201 811 -230 1515 -613 2184 -1188 104
-90 416 -399 494 -489 331 -387 501 -625 711 -997 119 -210 288 -566 346 -730
10 -27 32 -88 49 -135 60 -164 87 -251 158 -520 82 -305 143 -722 162 -1105
14 -276 14 -19754 0 -20030 -24 -479 -100 -926 -230 -1350 -12 -38 -25 -83
-30 -100 -13 -45 -25 -81 -60 -175 -17 -47 -36 -98 -40 -113 -17 -55 -144
-343 -213 -482 -666 -1348 -1837 -2375 -3262 -2862 -432 -147 -844 -231 -1389
-283 -152 -14 -20169 -14 -20322 0 -542 51 -956 135 -1389 283 -1422 486
-2593 1512 -3259 2856 -71 143 -198 431 -216 488 -4 15 -23 66 -40 113 -35 94
-47 130 -60 175 -5 17 -18 62 -30 100 -110 361 -165 647 -222 1165 -16 144
-24 19844 -8 20185 16 350 53 647 124 980 29 132 111 434 151 550 14 39 22 62
84 232 136 375 388 851 645 1218 137 197 202 279 422 537 78 90 390 399 494
489 231 198 428 347 651 492 119 77 248 157 254 157 2 0 41 22 87 48 325 187
776 373 1192 491 367 104 662 158 1101 200 134 12 20205 13 20341 1z"/>
<path d="M10644 30437 c-232 -94 -520 -301 -774 -556 -954 -957 -1525 -2623
-1610 -4701 -6 -155 -10 -2012 -10 -5077 l0 -4833 490 0 490 0 2 2153 3 2152
7445 0 7445 0 3 -7683 2 -7682 599 0 599 0 41 -47 c23 -25 44 -57 48 -71 8
-32 -30 -110 -91 -184 l-47 -58 -870 0 -869 0 0 3065 0 3065 -6860 0 -6860 0
0 -3065 0 -3065 -879 0 -879 0 -56 67 c-31 37 -63 83 -72 102 -16 34 -16 37 6
78 13 24 40 59 62 78 l38 35 595 0 595 0 0 5205 0 5205 -492 -2 -493 -3 -3
-4707 -2 -4708 -233 0 -233 0 -98 -52 c-180 -97 -389 -272 -504 -420 -65 -85
-137 -211 -170 -296 -53 -139 -67 -221 -66 -387 1 -185 27 -294 108 -461 113
-231 293 -431 582 -649 l99 -74 1543 -1 1542 0 0 3065 0 3065 600 0 600 0 2
-2108 3 -2107 1168 -3 1167 -2 0 2110 0 2110 2415 0 2415 0 0 -2110 0 -2110
1170 0 1170 0 0 2110 0 2110 515 0 515 0 0 -3065 0 -3065 1551 0 1552 0 86 73
c420 354 622 669 663 1038 43 388 -186 832 -562 1088 -30 21 -99 61 -154 89
l-98 52 -234 0 -234 0 0 9768 c0 8998 -3 10077 -25 10387 -2 39 -7 115 -10
170 -33 534 -137 1230 -261 1745 -85 350 -248 857 -348 1080 -8 19 -29 69 -47
110 -46 109 -198 413 -270 537 -311 542 -716 996 -1139 1276 -109 72 -241 142
-332 177 -53 20 -63 20 -6008 20 l-5955 0 -81 -33z m11867 -1008 c334 -230
656 -631 905 -1129 417 -835 650 -1896 704 -3215 6 -139 10 -1143 10 -2383 l0
-2142 -7447 2 -7448 3 0 2210 c0 2276 0 2294 41 2810 63 814 218 1572 446
2185 280 752 691 1352 1137 1659 l75 51 5751 0 5751 0 75 -51z m-9151 -22079
l0 -1590 -180 0 -180 0 0 1590 0 1590 180 0 180 0 0 -1590z m7170 0 l0 -1590
-180 0 -180 0 0 1590 0 1590 180 0 180 0 0 -1590z"/>
<path d="M11209 28908 c-421 -635 -807 -1932 -1019 -3428 -155 -1098 -224
-2142 -229 -3472 l-2 -658 846 0 845 0 -2 493 -3 492 -348 0 -347 0 0 90 c0
132 20 723 26 773 l5 42 5725 0 5724 0 0 -46 c0 -25 4 -155 10 -288 5 -132 11
-314 14 -403 l5 -163 -4790 0 -4789 0 0 -495 0 -495 5287 0 5286 0 -6 653 c-9
880 -32 1444 -87 2132 -138 1712 -456 3222 -896 4258 -81 191 -165 355 -268
519 l-91 148 -5398 0 -5397 0 -101 -152z m10338 -885 c345 -779 659 -2196 788
-3548 8 -88 17 -179 21 -202 l5 -43 -5661 0 -5661 0 5 33 c3 17 13 109 22 202
86 937 273 1983 478 2683 105 356 251 766 321 903 l16 29 4820 0 4820 0 26
-57z"/>
<path d="M14893 26958 c-248 -36 -449 -239 -491 -494 -13 -81 -13 -101 0 -182
38 -224 196 -407 408 -473 64 -20 89 -20 1887 -20 1358 0 1834 3 1870 12 112
27 242 110 314 201 227 286 140 724 -179 891 -139 73 19 67 -1969 70 -984 1
-1813 -1 -1840 -5z"/>
<path d="M11900 15145 l0 -2775 4800 0 4800 0 0 2775 0 2775 -4800 0 -4800 0
0 -2775z m8618 3 l-3 -1783 -3812 -3 -3813 -2 0 1785 0 1785 3815 0 3815 0 -2
-1782z"/>
<path d="M19350 16015 l0 -395 420 2 420 3 3 393 2 392 -422 0 -423 0 0 -395z"/>
<path d="M13240 16130 l0 -170 645 0 645 0 0 170 0 170 -645 0 -645 0 0 -170z"/>
<path d="M15717 15173 l2 -168 1095 -3 1096 -2 0 170 0 170 -1097 0 -1098 0 2
-167z"/>
<path d="M15720 14550 l0 -170 1095 0 1095 0 0 170 0 170 -1095 0 -1095 0 0
-170z"/>
</g>
</svg>
