<?xml version="1.0" standalone="no"?>
<!DOCTYPE svg PUBLIC "-//W3C//DTD SVG 20010904//EN"
 "http://www.w3.org/TR/2001/REC-SVG-20010904/DTD/svg10.dtd">
<svg version="1.0" xmlns="http://www.w3.org/2000/svg"
 width="3333.000000pt" height="3333.000000pt" viewBox="0 0 3333.000000 3333.000000"
 preserveAspectRatio="xMidYMid meet">

<g transform="translate(0.000000,3333.000000) scale(0.100000,-0.100000)"
fill="#000000" stroke="none">
<path d="M6480 33319 c-1384 -90 -2698 -588 -3795 -1438 -447 -346 -890 -789
-1236 -1236 -857 -1106 -1349 -2413 -1439 -3820 -14 -225 -14 -20098 0 -20325
98 -1548 689 -2977 1717 -4153 138 -157 463 -482 620 -620 1178 -1030 2601
-1618 4158 -1717 222 -14 20098 -14 20320 0 1978 126 3766 1058 5003 2607 884
1109 1401 2454 1492 3883 14 227 14 20100 0 20325 -90 1407 -582 2714 -1439
3820 -346 447 -789 890 -1236 1236 -1106 857 -2413 1349 -3820 1439 -194 12
-20155 11 -20345 -1z m20300 -1269 c1784 -122 3380 -1057 4363 -2555 532 -812
840 -1732 907 -2715 14 -200 14 -20030 0 -20230 -122 -1785 -1055 -3377 -2555
-4363 -810 -532 -1732 -840 -2715 -907 -200 -14 -20030 -14 -20230 0 -1785
122 -3377 1055 -4363 2555 -531 810 -840 1732 -907 2715 -14 200 -14 20030 0
20230 67 983 375 1903 907 2715 977 1489 2578 2431 4338 2554 177 12 20075 13
20255 1z"/>
<path d="M24585 30414 c-430 -32 -721 -77 -1062 -163 -793 -200 -1537 -582
-2173 -1114 -1160 -970 -1863 -2347 -1970 -3859 -13 -186 -13 -579 0 -768 40
-578 164 -1119 380 -1670 l53 -132 -2112 -2112 -2111 -2111 -2154 2154 -2154
2154 -1004 1721 c-551 946 -1015 1737 -1031 1758 -37 51 -55 65 -617 454 -267
185 -521 361 -565 392 -44 31 -224 155 -400 277 -176 122 -668 464 -1094 759
-426 296 -793 547 -815 558 -89 45 -215 60 -315 37 -123 -28 -105 -12 -953
-858 -847 -845 -834 -831 -873 -965 -24 -81 -16 -200 17 -281 15 -39 256 -394
673 -995 357 -514 878 -1266 1158 -1670 280 -404 527 -759 550 -788 22 -29 69
-72 106 -96 51 -34 2331 -1367 2951 -1726 63 -36 201 -117 305 -178 l190 -111
2155 -2156 2155 -2155 -1625 -1625 -1625 -1625 -100 41 c-500 205 -1077 342
-1650 390 -189 16 -695 16 -880 0 -1116 -96 -2131 -497 -2990 -1180 -1114
-886 -1841 -2155 -2039 -3561 -72 -509 -71 -1095 4 -1584 52 -335 148 -740
197 -823 29 -50 87 -104 145 -135 37 -20 58 -23 143 -23 89 0 106 3 150 26 38
20 477 454 1808 1788 966 969 1763 1761 1769 1761 23 0 247 -124 372 -207 332
-218 685 -513 1157 -966 696 -667 1265 -1351 1477 -1775 l46 -93 -906 -907
c-2070 -2071 -2601 -2610 -2634 -2671 -88 -163 -23 -365 146 -451 87 -44 515
-141 810 -184 308 -44 417 -51 790 -51 370 0 485 8 785 50 1696 238 3190 1263
4039 2768 386 685 615 1436 687 2257 17 183 17 721 1 900 -52 571 -189 1147
-388 1629 l-44 106 1625 1625 1625 1625 687 -687 687 -688 -500 -502 c-576
-578 -619 -632 -693 -853 -117 -349 -56 -723 164 -1010 30 -38 1576 -1591
3437 -3451 3010 -3009 3392 -3387 3466 -3433 189 -119 364 -171 577 -172 125
-1 178 5 285 32 150 37 285 105 412 209 40 32 901 888 1914 1902 1975 1977
1902 1900 1984 2083 155 344 120 740 -93 1060 -51 78 -6779 6812 -6887 6894
-311 236 -748 276 -1114 101 -155 -73 -202 -115 -729 -639 l-508 -505 -687
687 -687 687 2110 2110 2110 2110 125 -50 c1188 -482 2570 -526 3800 -120
1721 568 3081 1982 3574 3718 140 493 201 898 213 1412 12 555 -52 1080 -194
1589 -41 149 -58 183 -115 237 -75 73 -118 89 -233 89 -92 0 -104 -2 -154 -30
-42 -23 -453 -431 -1805 -1787 -963 -967 -1757 -1758 -1765 -1758 -26 0 -245
121 -376 208 -431 286 -963 754 -1544 1356 -531 550 -896 1014 -1076 1367
l-57 112 1120 1121 c2143 2146 2394 2401 2427 2464 26 50 30 67 29 142 0 101
-20 154 -85 225 -60 65 -113 89 -312 140 -282 72 -583 125 -887 155 -105 11
-710 21 -805 14z m-2494 -17470 c30 -9 86 -32 124 -52 65 -33 211 -176 2233
-2196 1190 -1189 2184 -2188 2209 -2221 146 -190 166 -437 55 -649 -72 -137
-190 -237 -342 -289 -168 -59 -365 -35 -515 63 -41 27 -753 733 -2246 2227
-2157 2159 -2186 2189 -2223 2264 -50 104 -69 201 -63 310 18 283 230 515 511
560 68 10 191 2 257 -17z m-1953 -1919 c34 -8 95 -31 135 -51 69 -34 163 -127
2269 -2231 1719 -1719 2204 -2209 2232 -2257 58 -98 81 -183 80 -306 0 -176
-49 -294 -174 -421 -119 -122 -258 -179 -432 -179 -97 0 -178 20 -272 67 -67
33 -180 144 -2264 2226 -1794 1793 -2200 2204 -2232 2257 -129 217 -109 489
49 688 43 54 137 129 204 164 105 53 281 72 405 43z"/>
</g>
</svg>
