<?xml version="1.0" standalone="no"?>
<!DOCTYPE svg PUBLIC "-//W3C//DTD SVG 20010904//EN"
 "http://www.w3.org/TR/2001/REC-SVG-20010904/DTD/svg10.dtd">
<svg version="1.0" xmlns="http://www.w3.org/2000/svg"
 width="3333.000000pt" height="3333.000000pt" viewBox="0 0 3333.000000 3333.000000"
 preserveAspectRatio="xMidYMid meet">

<g transform="translate(0.000000,3333.000000) scale(0.100000,-0.100000)"
fill="#000000" stroke="none">
<path d="M6450 33319 c-47 -4 -139 -13 -205 -19 -111 -10 -299 -33 -370 -44
-16 -3 -61 -10 -100 -17 -60 -9 -119 -21 -360 -69 -47 -10 -215 -52 -297 -74
-32 -9 -84 -23 -115 -31 -65 -18 -480 -154 -503 -166 -8 -4 -69 -29 -135 -54
-66 -26 -138 -55 -160 -65 -22 -9 -69 -30 -105 -46 -97 -42 -447 -218 -553
-278 -982 -559 -1775 -1295 -2394 -2221 -193 -290 -403 -668 -533 -960 -12
-27 -33 -73 -46 -102 -48 -106 -154 -383 -209 -543 -57 -169 -78 -238 -121
-395 -13 -49 -28 -106 -33 -125 -20 -70 -61 -250 -81 -355 -6 -33 -14 -71 -17
-85 -5 -27 -19 -111 -33 -205 -31 -209 -43 -315 -62 -530 -14 -167 -15 -20361
0 -20530 27 -314 62 -565 122 -870 25 -129 109 -459 158 -620 71 -230 200
-579 283 -763 17 -37 42 -94 57 -127 81 -179 220 -441 345 -650 526 -875 1246
-1633 2084 -2193 149 -100 408 -262 418 -262 2 0 36 -19 77 -43 84 -49 442
-230 538 -271 36 -16 83 -37 105 -46 22 -10 94 -39 160 -65 66 -25 127 -50
135 -54 24 -12 439 -149 505 -166 33 -9 85 -23 115 -31 80 -22 249 -64 295
-74 329 -66 351 -70 526 -95 131 -18 351 -41 487 -51 56 -3 102 -10 102 -15 0
-14 38 -11 44 4 5 9 7 9 12 0 4 -10 2030 -13 10079 -13 8049 0 10075 3 10079
13 5 9 7 9 12 0 6 -15 44 -18 44 -4 0 5 46 12 103 15 165 11 386 35 525 56
172 27 184 29 487 90 46 10 215 52 295 74 30 8 82 22 115 31 66 17 481 154
505 166 8 4 69 29 135 54 66 26 138 55 160 65 22 9 69 30 105 46 96 41 454
222 538 271 41 24 75 43 77 43 10 0 269 162 418 262 838 560 1558 1318 2084
2193 125 209 264 471 345 650 15 33 40 90 57 127 83 184 212 533 283 763 49
161 133 491 158 620 61 310 95 558 122 880 15 170 14 20356 0 20520 -19 215
-31 321 -62 530 -14 94 -28 178 -33 205 -3 14 -11 52 -17 85 -20 105 -61 285
-81 355 -5 19 -20 76 -33 125 -43 157 -64 226 -121 395 -55 160 -161 437 -209
543 -13 29 -34 75 -46 102 -35 80 -176 363 -221 445 -676 1233 -1708 2234
-2954 2865 -132 67 -269 134 -305 150 -36 15 -83 36 -105 45 -22 10 -94 39
-160 65 -66 25 -127 50 -135 54 -23 12 -438 148 -502 166 -32 8 -84 22 -115
31 -83 22 -251 64 -298 74 -241 48 -300 60 -360 69 -38 7 -83 14 -100 17 -69
11 -258 34 -365 43 -63 6 -162 15 -220 21 -129 12 -20294 11 -20420 -1z
m20376 -1269 c462 -44 745 -94 1120 -201 811 -230 1515 -613 2184 -1188 104
-90 416 -399 494 -489 331 -387 501 -625 711 -997 119 -210 288 -566 346 -730
10 -27 32 -88 49 -135 60 -164 87 -251 158 -520 82 -305 143 -722 162 -1105
14 -276 14 -19754 0 -20030 -24 -479 -100 -926 -230 -1350 -12 -38 -25 -83
-30 -100 -13 -45 -25 -81 -60 -175 -17 -47 -36 -98 -40 -113 -17 -55 -144
-343 -213 -482 -666 -1348 -1837 -2375 -3262 -2862 -432 -147 -844 -231 -1389
-283 -152 -14 -20169 -14 -20322 0 -542 51 -956 135 -1389 283 -1422 486
-2593 1512 -3259 2856 -71 143 -198 431 -216 488 -4 15 -23 66 -40 113 -35 94
-47 130 -60 175 -5 17 -18 62 -30 100 -110 361 -165 647 -222 1165 -16 144
-24 19844 -8 20185 16 350 53 647 124 980 29 132 111 434 151 550 14 39 22 62
84 232 136 375 388 851 645 1218 137 197 202 279 422 537 78 90 390 399 494
489 231 198 428 347 651 492 119 77 248 157 254 157 2 0 41 22 87 48 325 187
776 373 1192 491 367 104 662 158 1101 200 134 12 20205 13 20341 1z"/>
<path d="M7460 25895 l0 -1895 1955 0 1955 0 0 895 0 895 711 0 711 0 -6 -27
c-13 -66 -95 -543 -101 -588 -3 -27 -35 -212 -70 -410 -34 -198 -70 -409 -80
-470 -9 -60 -31 -193 -50 -295 -34 -190 -65 -369 -110 -640 -14 -85 -36 -218
-50 -295 -14 -77 -37 -210 -51 -295 -30 -188 -75 -448 -115 -667 -16 -89 -36
-211 -45 -270 -8 -59 -41 -257 -74 -438 -33 -182 -64 -364 -70 -405 -5 -41
-41 -255 -79 -475 -62 -354 -124 -718 -247 -1440 -20 -115 -51 -293 -69 -395
-18 -102 -36 -210 -40 -240 -4 -30 -29 -181 -57 -335 -27 -154 -60 -347 -73
-430 -33 -201 -47 -285 -100 -580 -24 -137 -49 -284 -55 -325 -6 -41 -42 -257
-81 -480 -78 -456 -184 -1074 -289 -1690 -39 -228 -91 -534 -116 -680 -25
-146 -48 -273 -50 -282 -5 -17 -121 -18 -2265 -18 l-2259 0 0 -1745 0 -1745
655 0 655 0 0 -625 0 -625 590 0 590 0 0 -1670 0 -1670 1570 0 1570 0 0 1670
0 1670 585 0 585 0 0 625 0 625 3680 0 3680 0 0 -625 0 -625 585 0 585 0 0
-1670 0 -1670 1570 0 1570 0 0 1670 0 1670 590 0 590 0 0 625 0 625 655 0 655
0 0 1745 0 1745 -2259 0 c-2143 0 -2260 1 -2265 18 -5 17 -41 226 -176 1022
-39 228 -102 595 -141 815 -38 220 -74 432 -79 471 -5 38 -37 222 -70 407 -33
185 -65 371 -71 414 -6 43 -30 191 -55 328 -46 259 -68 388 -108 635 -26 159
-89 527 -197 1145 -38 220 -74 432 -79 471 -5 38 -36 221 -69 405 -33 184 -65
369 -70 412 -6 43 -38 228 -71 410 -33 183 -64 366 -70 407 -5 41 -41 257 -80
480 -39 223 -86 500 -106 615 -20 116 -49 281 -65 368 -16 88 -33 196 -39 240
-5 45 -28 181 -50 302 -22 121 -54 303 -71 405 -16 102 -54 325 -84 495 -30
171 -64 369 -76 440 -11 72 -49 294 -84 495 -35 201 -66 388 -70 415 -6 44
-77 456 -91 528 l-6 27 711 0 711 0 0 -895 0 -895 1955 0 1955 0 0 1895 0
1895 -9210 0 -9210 0 0 -1895z m10744 -127 c-10 -12 -91 -99 -178 -192 -88
-94 -210 -228 -272 -298 -63 -69 -157 -173 -211 -230 -128 -137 -202 -217
-293 -319 -41 -46 -138 -151 -215 -234 -77 -82 -189 -205 -249 -272 -60 -68
-112 -123 -116 -123 -4 0 -56 55 -116 123 -60 67 -174 192 -254 277 -80 85
-177 191 -215 234 -39 44 -142 156 -229 250 -88 94 -195 212 -239 261 -44 50
-166 182 -270 295 -105 113 -200 215 -211 228 l-19 22 1553 0 1553 0 -19 -22z
m-3446 -2543 c64 -71 180 -198 257 -280 181 -194 289 -314 293 -324 2 -5 -61
-78 -140 -163 -274 -296 -564 -612 -657 -717 -52 -58 -158 -174 -235 -256 -78
-83 -162 -174 -188 -204 -27 -29 -48 -48 -48 -41 0 7 18 111 40 232 23 121 48
268 56 327 8 58 42 255 74 438 33 182 65 367 71 410 5 43 39 240 74 438 35
198 67 389 71 425 l7 65 104 -110 c58 -61 157 -168 221 -240z m4223 -125 c38
-223 101 -585 139 -805 39 -220 76 -445 84 -501 8 -55 33 -200 55 -321 23
-121 41 -226 41 -233 0 -6 -24 15 -52 47 -29 32 -116 125 -193 208 -77 82
-176 190 -220 240 -44 49 -145 160 -225 245 -80 86 -181 196 -225 245 -44 50
-142 157 -218 238 -76 81 -137 152 -135 157 4 11 108 126 293 325 77 83 176
191 220 240 44 50 143 157 220 239 l140 149 3 -34 c1 -19 34 -216 73 -439z
m-2090 -2202 c119 -128 238 -258 264 -288 27 -30 128 -140 225 -245 97 -104
194 -210 216 -235 21 -25 124 -137 229 -250 105 -113 243 -263 307 -335 64
-71 127 -141 141 -154 l26 -23 -812 -809 c-447 -445 -814 -809 -817 -809 -3 0
-370 363 -816 808 l-811 807 70 75 c39 41 106 116 150 165 44 50 160 176 257
280 97 105 214 233 261 285 46 52 147 162 224 245 77 82 181 195 230 250 133
149 429 465 435 465 3 0 103 -105 221 -232z m-2856 -5783 c-671 -669 -1227
-1222 -1235 -1230 -15 -14 0 99 54 415 58 336 129 749 141 820 7 47 38 229 69
405 30 176 89 520 131 765 42 245 107 625 145 845 38 220 78 461 90 535 12 74
33 197 47 273 l26 139 876 -876 876 -876 -1220 -1215z m5839 2765 c19 -107 38
-217 41 -245 4 -27 37 -225 75 -440 38 -214 71 -410 75 -435 3 -25 37 -225 75
-445 38 -220 100 -584 139 -810 38 -225 97 -570 131 -765 66 -383 75 -436 118
-697 23 -144 25 -170 13 -158 -9 7 -565 561 -1236 1229 l-1220 1216 875 875
c481 481 875 873 877 872 1 -2 18 -90 37 -197z m-2551 -3610 l652 -650 -1305
0 -1305 0 650 650 c358 357 651 649 653 650 2 0 297 -292 655 -650z"/>
</g>
</svg>
