<?xml version="1.0" standalone="no"?>
<!DOCTYPE svg PUBLIC "-//W3C//DTD SVG 20010904//EN"
 "http://www.w3.org/TR/2001/REC-SVG-20010904/DTD/svg10.dtd">
<svg version="1.0" xmlns="http://www.w3.org/2000/svg"
 width="3333.000000pt" height="3333.000000pt" viewBox="0 0 3333.000000 3333.000000"
 preserveAspectRatio="xMidYMid meet">

<g transform="translate(0.000000,3333.000000) scale(0.100000,-0.100000)"
fill="#000000" stroke="none">
<path d="M6480 33319 c-1384 -90 -2698 -588 -3795 -1438 -447 -346 -890 -789
-1236 -1236 -857 -1106 -1349 -2413 -1439 -3820 -14 -225 -14 -20098 0 -20325
91 -1427 609 -2775 1492 -3883 179 -223 313 -372 528 -587 215 -215 364 -349
587 -528 1111 -886 2450 -1400 3888 -1492 222 -14 20098 -14 20320 0 1978 126
3766 1058 5003 2607 883 1108 1401 2456 1492 3883 14 227 14 20100 0 20325
-90 1407 -582 2714 -1439 3820 -346 447 -789 890 -1236 1236 -1106 857 -2413
1349 -3820 1439 -194 12 -20155 11 -20345 -1z m20300 -1269 c1784 -122 3380
-1057 4363 -2555 532 -812 840 -1732 907 -2715 14 -200 14 -20030 0 -20230
-122 -1785 -1055 -3377 -2555 -4363 -811 -532 -1731 -840 -2715 -907 -200 -14
-20030 -14 -20230 0 -1785 122 -3377 1055 -4363 2555 -531 810 -840 1732 -907
2715 -14 200 -14 20030 0 20230 67 983 375 1903 907 2715 977 1489 2578 2431
4338 2554 177 12 20075 13 20255 1z"/>
<path d="M16192 28915 c-7 -9 -30 -15 -55 -15 -55 0 -185 -16 -322 -40 -60
-11 -151 -24 -201 -30 -50 -5 -110 -16 -135 -24 -44 -14 -119 -33 -259 -66
-209 -49 -283 -72 -480 -147 -36 -14 -85 -32 -110 -40 -25 -8 -64 -23 -88 -34
-23 -10 -48 -19 -54 -19 -12 0 -36 -11 -218 -97 -247 -118 -380 -185 -412
-206 -34 -24 -122 -76 -148 -90 -8 -4 -34 -20 -57 -35 -24 -15 -75 -47 -115
-71 -64 -38 -165 -111 -453 -327 -97 -73 -432 -378 -536 -488 -186 -197 -314
-346 -422 -490 -236 -315 -229 -304 -327 -471 -23 -38 -53 -89 -68 -112 -73
-115 -109 -180 -191 -347 -135 -276 -187 -388 -195 -421 -4 -16 -14 -43 -22
-60 -7 -16 -20 -50 -28 -75 -8 -25 -29 -83 -46 -130 -46 -127 -85 -253 -114
-365 -14 -55 -33 -127 -42 -160 -35 -135 -54 -225 -69 -320 -9 -55 -24 -154
-35 -220 -27 -168 -28 -175 -50 -518 -19 -290 -19 -320 -5 -540 23 -357 35
-485 50 -559 8 -38 19 -110 25 -161 11 -100 43 -262 67 -342 9 -27 24 -84 34
-125 41 -170 51 -209 79 -295 16 -49 43 -128 60 -175 17 -47 38 -107 47 -135
9 -27 22 -59 28 -70 7 -11 16 -36 20 -55 4 -19 30 -82 57 -140 100 -209 189
-395 200 -414 22 -40 46 -83 74 -128 16 -26 71 -118 123 -204 52 -87 113 -182
136 -213 254 -342 317 -423 383 -494 42 -45 127 -138 189 -207 61 -69 122
-134 135 -144 13 -11 106 -94 208 -186 102 -91 275 -233 385 -315 227 -170
228 -171 425 -290 218 -132 302 -180 377 -215 37 -18 136 -66 220 -106 83 -41
154 -74 158 -74 5 0 26 -9 49 -19 23 -11 61 -26 86 -34 25 -8 77 -27 115 -42
39 -14 95 -35 125 -45 30 -10 71 -25 90 -33 43 -19 177 -56 370 -103 36 -9 92
-24 125 -35 33 -10 105 -26 160 -35 55 -9 103 -18 106 -20 4 -2 49 -8 100 -14
52 -6 141 -19 199 -30 102 -18 531 -45 725 -45 194 0 623 27 725 45 58 11 147
24 199 30 51 6 96 12 100 14 3 2 51 11 106 20 55 9 127 25 160 35 33 11 89 26
125 35 193 47 327 84 370 103 19 8 60 23 90 33 30 10 87 31 125 45 39 15 90
34 115 42 25 8 63 23 86 34 23 10 44 19 49 19 4 0 75 33 158 74 84 40 183 88
220 106 75 35 159 83 377 215 197 119 198 120 425 290 110 82 283 224 385 315
102 92 195 175 208 186 13 10 74 75 135 144 62 69 147 162 189 207 66 71 129
152 383 494 23 31 84 126 136 213 52 86 107 178 123 204 28 45 52 88 74 128
11 19 100 205 200 414 27 58 53 121 57 140 4 19 13 44 20 55 6 11 19 43 28 70
9 28 30 88 47 135 17 47 44 126 60 175 28 86 38 125 79 295 10 41 25 98 34
125 24 80 56 242 67 342 6 51 17 123 25 161 15 74 27 202 50 559 14 220 14
250 -5 540 -22 343 -23 350 -50 518 -11 66 -26 165 -35 220 -15 95 -34 185
-69 320 -9 33 -28 105 -42 160 -29 112 -68 238 -114 365 -17 47 -38 105 -46
130 -8 25 -21 59 -28 75 -8 17 -18 44 -22 60 -8 33 -60 145 -195 421 -82 167
-118 232 -191 347 -15 23 -45 74 -68 112 -98 167 -91 156 -327 471 -108 144
-236 293 -422 490 -104 110 -439 415 -536 488 -288 216 -389 289 -453 327 -40
24 -91 56 -115 71 -23 15 -49 31 -57 35 -26 14 -114 66 -148 90 -32 21 -165
88 -412 206 -182 86 -206 97 -218 97 -6 0 -31 9 -54 19 -24 11 -63 26 -88 34
-25 8 -74 26 -110 40 -197 75 -271 98 -480 147 -140 33 -215 52 -259 66 -25 8
-85 19 -135 24 -50 6 -140 19 -201 30 -137 24 -267 40 -322 40 -24 0 -48 6
-57 15 -22 22 -924 22 -944 0z"/>
<path d="M14310 16779 c-52 -4 -232 -12 -399 -19 -169 -6 -333 -17 -370 -24
-36 -8 -95 -17 -131 -21 -36 -3 -112 -15 -170 -25 -58 -10 -130 -22 -160 -25
-77 -8 -273 -42 -350 -61 -36 -9 -99 -25 -140 -35 -158 -38 -207 -51 -275 -69
-75 -21 -150 -40 -255 -66 -36 -9 -85 -24 -110 -34 -116 -46 -181 -70 -192
-70 -6 0 -30 -8 -52 -19 -23 -10 -61 -25 -86 -34 -111 -38 -167 -58 -195 -71
-16 -8 -41 -17 -55 -20 -36 -10 -111 -42 -215 -91 -416 -198 -638 -309 -730
-365 -44 -27 -96 -58 -115 -70 -19 -11 -55 -34 -80 -50 -25 -17 -58 -37 -75
-45 -16 -9 -49 -28 -72 -43 -24 -15 -79 -49 -124 -76 -75 -45 -181 -123 -574
-417 -120 -90 -331 -274 -598 -522 -132 -122 -205 -198 -378 -391 -74 -83
-169 -188 -211 -234 -43 -46 -99 -114 -125 -151 -26 -36 -65 -89 -87 -118
-219 -278 -376 -507 -546 -798 -23 -38 -54 -90 -70 -115 -53 -83 -136 -234
-182 -330 -54 -112 -193 -401 -249 -515 -21 -45 -45 -101 -53 -125 -8 -25 -27
-76 -41 -115 -36 -96 -70 -191 -90 -250 -9 -27 -21 -58 -27 -69 -22 -41 -105
-295 -129 -398 -11 -43 -27 -113 -38 -155 -10 -43 -25 -103 -34 -133 -54 -188
-105 -412 -112 -495 -4 -38 -15 -115 -26 -170 -10 -55 -21 -129 -25 -165 -3
-36 -15 -107 -25 -158 -11 -57 -23 -177 -29 -305 -11 -238 -17 -297 -31 -297
-5 0 -9 -741 -9 -1949 0 -1670 2 -1950 14 -1954 8 -3 20 -32 27 -64 17 -83 99
-242 165 -322 31 -38 87 -94 125 -125 68 -56 246 -156 278 -156 36 0 91 -22
91 -35 0 -13 1223 -15 9695 -15 8472 0 9695 2 9695 15 0 13 55 35 91 35 32 0
210 100 278 156 38 31 94 87 125 125 66 80 148 239 165 322 7 32 19 61 27 64
12 4 14 284 14 1954 0 1208 -4 1949 -9 1949 -14 0 -20 59 -31 297 -6 128 -18
248 -29 305 -10 51 -22 122 -25 158 -4 36 -15 110 -25 165 -11 55 -22 132 -26
170 -7 83 -58 307 -112 495 -9 30 -24 90 -34 133 -11 42 -27 112 -38 155 -24
103 -107 357 -129 398 -6 11 -18 42 -27 69 -20 59 -54 154 -90 250 -14 39 -33
90 -41 115 -8 24 -32 80 -53 125 -56 114 -195 403 -249 515 -46 96 -129 247
-182 330 -16 25 -47 77 -70 115 -170 291 -327 520 -546 798 -22 29 -61 82 -87
118 -26 37 -82 105 -125 151 -42 46 -137 151 -211 234 -173 193 -246 269 -378
391 -267 248 -478 432 -598 522 -393 294 -499 372 -574 417 -45 27 -100 61
-124 76 -23 15 -55 34 -72 43 -16 8 -50 28 -75 45 -25 16 -61 39 -80 50 -19
12 -71 43 -115 70 -92 56 -314 167 -730 365 -104 49 -179 81 -215 91 -14 3
-38 12 -55 20 -28 13 -84 33 -195 71 -25 9 -63 24 -86 34 -22 11 -46 19 -52
19 -11 0 -76 24 -192 70 -25 10 -74 25 -110 34 -105 26 -180 45 -255 66 -68
18 -117 31 -275 69 -41 10 -104 26 -140 35 -84 20 -270 52 -385 66 -49 6 -106
15 -125 20 -19 5 -78 14 -130 20 -52 6 -129 17 -170 25 -43 9 -200 19 -370 25
-162 6 -351 15 -419 20 -148 12 -4549 11 -4691 -1z"/>
</g>
</svg>
