<svg width="20" height="20" viewBox="0 0 20 20" fill="none" xmlns="http://www.w3.org/2000/svg">
<path fill-rule="evenodd" clip-rule="evenodd" d="M6.66667 2.5C7.12691 2.5 7.5 2.8731 7.5 3.33333V4.16667H12.5V3.33333C12.5 2.8731 12.8731 2.5 13.3333 2.5C13.7936 2.5 14.1667 2.8731 14.1667 3.33333V4.16669C14.5492 4.16692 14.8827 4.16928 15.1625 4.19214C15.492 4.21906 15.8197 4.27849 16.135 4.43915C16.6054 4.67884 16.9878 5.06129 17.2275 5.53169C17.3882 5.84701 17.4476 6.17469 17.4745 6.50414C17.5 6.81628 17.5 7.19525 17.5 7.63453V14.0321C17.5 14.4714 17.5 14.8504 17.4745 15.1625C17.4476 15.492 17.3882 15.8197 17.2275 16.135C16.9878 16.6054 16.6054 16.9878 16.135 17.2275C15.8197 17.3882 15.492 17.4476 15.1625 17.4745C14.8504 17.5 14.4715 17.5 14.0323 17.5H14.0323H14.0322H5.9679H5.96788H5.96786C5.52864 17.5 5.14958 17.5 4.83748 17.4745C4.50803 17.4476 4.18034 17.3882 3.86503 17.2275C3.39462 16.9878 3.01217 16.6054 2.77249 16.135C2.61182 15.8197 2.55239 15.492 2.52548 15.1625C2.49998 14.8504 2.49999 14.4714 2.5 14.0322V14.0322V7.63455V7.63452C2.49999 7.19525 2.49998 6.81627 2.52548 6.50414C2.55239 6.17469 2.61182 5.84701 2.77249 5.53169C3.01217 5.06129 3.39462 4.67884 3.86503 4.43915C4.18034 4.27849 4.50803 4.21906 4.83748 4.19214C5.11729 4.16928 5.45081 4.16692 5.83334 4.16669V3.33333C5.83334 2.8731 6.20643 2.5 6.66667 2.5ZM7.5 8.33333C7.5 7.8731 7.8731 7.5 8.33334 7.5H10C10.4602 7.5 10.8333 7.8731 10.8333 8.33333V12.5H11.6667C12.1269 12.5 12.5 12.8731 12.5 13.3333C12.5 13.7936 12.1269 14.1667 11.6667 14.1667H10H8.33334C7.8731 14.1667 7.5 13.7936 7.5 13.3333C7.5 12.8731 7.8731 12.5 8.33334 12.5H9.16667V9.16667H8.33334C7.8731 9.16667 7.5 8.79357 7.5 8.33333Z" fill="white" fill-opacity="0.7"/>
</svg>
