<svg width="20" height="20" viewBox="0 0 20 20" fill="none" xmlns="http://www.w3.org/2000/svg">
<path fill-rule="evenodd" clip-rule="evenodd" d="M2.5 7.83333V14.3956C2.5 15.9439 2.5 16.7181 2.80387 17.07C3.06742 17.3753 3.46206 17.5346 3.86368 17.4979C4.32672 17.4556 4.86425 16.8985 5.9393 15.7843L6.71357 14.9818C7.00359 14.6812 7.1486 14.5309 7.31933 14.4233C7.47068 14.3279 7.6364 14.2575 7.81013 14.2148C8.0061 14.1667 8.21494 14.1667 8.63264 14.1667H12.1667C14.0335 14.1667 14.9669 14.1667 15.68 13.8034C16.3072 13.4838 16.8171 12.9738 17.1367 12.3466C17.5 11.6336 17.5 10.7002 17.5 8.83333V7.83333C17.5 5.96649 17.5 5.03307 17.1367 4.32003C16.8171 3.69282 16.3072 3.18289 15.68 2.86331C14.9669 2.5 14.0335 2.5 12.1667 2.5H7.83333C5.96649 2.5 5.03307 2.5 4.32003 2.86331C3.69282 3.18289 3.18289 3.69282 2.86331 4.32003C2.5 5.03307 2.5 5.96649 2.5 7.83333ZM6.66667 9.16667C7.1269 9.16667 7.5 8.79357 7.5 8.33333C7.5 7.8731 7.1269 7.5 6.66667 7.5C6.20643 7.5 5.83333 7.8731 5.83333 8.33333C5.83333 8.79357 6.20643 9.16667 6.66667 9.16667ZM10.8333 8.33333C10.8333 8.79357 10.4602 9.16667 10 9.16667C9.53976 9.16667 9.16667 8.79357 9.16667 8.33333C9.16667 7.8731 9.53976 7.5 10 7.5C10.4602 7.5 10.8333 7.8731 10.8333 8.33333ZM13.3333 9.16667C13.7936 9.16667 14.1667 8.79357 14.1667 8.33333C14.1667 7.8731 13.7936 7.5 13.3333 7.5C12.8731 7.5 12.5 7.8731 12.5 8.33333C12.5 8.79357 12.8731 9.16667 13.3333 9.16667Z" fill="white" fill-opacity="0.7"/>
</svg>
