<svg width="24" height="21" viewBox="0 0 24 21" fill="none" xmlns="http://www.w3.org/2000/svg">
<g clip-path="url(#clip0_26_755)">
<path d="M23.2856 9.91897L13.1719 0.989848L12.1919 0.124634L4.57855 6.84626L1.09714 9.91897C0.923241 10.0733 0.825623 10.2821 0.825623 10.4998C0.825623 10.7175 0.923241 10.9263 1.09714 11.0806L8.05261 17.2214L12.1919 20.875L19.8042 14.1533L19.9228 14.0496L23.2856 11.0853C23.3728 11.0089 23.4419 10.918 23.4891 10.8179C23.5363 10.7179 23.5606 10.6105 23.5606 10.5021C23.5606 10.3937 23.5363 10.2864 23.4891 10.1863C23.4419 10.0862 23.3728 9.99535 23.2856 9.91897V9.91897ZM12.1919 13.5679L8.71679 10.4998L12.1919 7.43171L15.666 10.4998L12.1919 13.5679Z" fill="#2684FF"/>
<path d="M12.1915 7.43191C11.0986 6.46722 10.4825 5.15988 10.4777 3.79546C10.473 2.43103 11.0801 1.1204 12.1663 0.149841L4.56238 6.86035L8.70062 10.5139L12.1915 7.43191Z" fill="url(#paint0_linear_26_755)"/>
<path d="M15.675 10.4917L12.1915 13.5681C13.2886 14.5369 13.9049 15.8508 13.9049 17.2207C13.9049 18.5906 13.2886 19.9045 12.1915 20.8733L19.8164 14.1452L15.675 10.4917Z" fill="url(#paint1_linear_26_755)"/>
</g>
<defs>
<linearGradient id="paint0_linear_26_755" x1="11.5693" y1="4.3277" x2="7.3178" y2="9.14215" gradientUnits="userSpaceOnUse">
<stop offset="0.18" stop-color="#0052CC"/>
<stop offset="1" stop-color="#2684FF"/>
</linearGradient>
<linearGradient id="paint1_linear_26_755" x1="886.385" y1="900.925" x2="1343.62" y2="1236.67" gradientUnits="userSpaceOnUse">
<stop offset="0.18" stop-color="#0052CC"/>
<stop offset="1" stop-color="#2684FF"/>
</linearGradient>
<clipPath id="clip0_26_755">
<rect x="0.737305" y="-0.000793457" width="22.8229" height="21" fill="white"/>
</clipPath>
</defs>
</svg>
