<svg width="56" height="50" viewBox="0 0 56 50" fill="none" xmlns="http://www.w3.org/2000/svg">
<g clip-path="url(#clip0_13_381)" filter="url(#filter0_d_13_381)">
<path d="M44.634 8.31118C41.5747 6.90741 38.294 5.87318 34.8638 5.28084C34.8013 5.2694 34.7389 5.29797 34.7067 5.35511C34.2848 6.10554 33.8175 7.08454 33.4902 7.85403C29.8008 7.30169 26.1304 7.30169 22.5166 7.85403C22.1893 7.06744 21.705 6.10554 21.2811 5.35511C21.249 5.29988 21.1866 5.27131 21.1241 5.28084C17.6958 5.87129 14.4151 6.90552 11.3539 8.31118C11.3274 8.3226 11.3047 8.34167 11.2896 8.36641C5.06678 17.6631 3.3621 26.7313 4.19836 35.6871C4.20214 35.7309 4.22674 35.7729 4.2608 35.7995C8.36642 38.8146 12.3434 40.645 16.2466 41.8582C16.309 41.8773 16.3752 41.8545 16.415 41.803C17.3383 40.5422 18.1613 39.2127 18.867 37.8146C18.9086 37.7327 18.8688 37.6356 18.7837 37.6032C17.4783 37.108 16.2352 36.5042 15.0395 35.8186C14.9449 35.7633 14.9373 35.628 15.0243 35.5633C15.2759 35.3747 15.5276 35.1785 15.7679 34.9805C15.8114 34.9443 15.872 34.9366 15.9231 34.9595C23.7786 38.546 32.2831 38.546 40.0459 34.9595C40.097 34.9348 40.1576 34.9424 40.203 34.9786C40.4433 35.1766 40.6949 35.3747 40.9484 35.5633C41.0354 35.628 41.0298 35.7633 40.9352 35.8186C39.7394 36.5175 38.4964 37.108 37.189 37.6013C37.1039 37.6337 37.0661 37.7327 37.1077 37.8146C37.8285 39.2107 38.6515 40.5402 39.5578 41.8011C39.5957 41.8545 39.6637 41.8773 39.7262 41.8582C43.6483 40.645 47.6252 38.8146 51.7309 35.7995C51.7668 35.7729 51.7895 35.7328 51.7933 35.689C52.7942 25.3352 50.117 16.3413 44.6964 8.3683C44.6832 8.34167 44.6605 8.3226 44.634 8.31118ZM20.04 30.234C17.675 30.234 15.7263 28.0627 15.7263 25.3961C15.7263 22.7296 17.6372 20.5583 20.04 20.5583C22.4617 20.5583 24.3916 22.7486 24.3538 25.3961C24.3538 28.0627 22.4428 30.234 20.04 30.234ZM35.9895 30.234C33.6245 30.234 31.6758 28.0627 31.6758 25.3961C31.6758 22.7296 33.5867 20.5583 35.9895 20.5583C38.4113 20.5583 40.3411 22.7486 40.3033 25.3961C40.3033 28.0627 38.4113 30.234 35.9895 30.234Z" fill="#5865F2"/>
</g>
<defs>
<filter id="filter0_d_13_381" x="0" y="0" width="56" height="56" filterUnits="userSpaceOnUse" color-interpolation-filters="sRGB">
<feFlood flood-opacity="0" result="BackgroundImageFix"/>
<feColorMatrix in="SourceAlpha" type="matrix" values="0 0 0 0 0 0 0 0 0 0 0 0 0 0 0 0 0 0 127 0" result="hardAlpha"/>
<feOffset dy="4"/>
<feGaussianBlur stdDeviation="2"/>
<feComposite in2="hardAlpha" operator="out"/>
<feColorMatrix type="matrix" values="0 0 0 0 0 0 0 0 0 0 0 0 0 0 0 0 0 0 0.25 0"/>
<feBlend mode="normal" in2="BackgroundImageFix" result="effect1_dropShadow_13_381"/>
<feBlend mode="normal" in="SourceGraphic" in2="effect1_dropShadow_13_381" result="shape"/>
</filter>
<clipPath id="clip0_13_381">
<rect width="48" height="48" fill="white" transform="translate(4)"/>
</clipPath>
</defs>
</svg>
