<svg width="34" height="35" viewBox="0 0 34 35" fill="none" xmlns="http://www.w3.org/2000/svg">
<path d="M17 0.921875C26.2969 0.921875 33.9531 8.57812 33.9531 17.875C33.9531 27.2402 26.2969 34.8281 17 34.8281C7.63477 34.8281 0.046875 27.2402 0.046875 17.875C0.046875 8.57812 7.63477 0.921875 17 0.921875ZM28.1426 8.7832C27.8691 9.19336 25.4766 12.2695 20.0762 14.457C20.623 15.5508 20.9648 16.3711 21.375 17.3281C26.1602 16.7129 30.9453 17.6699 31.4238 17.8066C31.4238 14.3887 30.1934 11.2441 28.1426 8.7832ZM26.5703 7.07422C23.0156 3.92969 18.1621 2.76758 13.582 3.86133C13.9922 4.4082 16.5898 7.96289 18.9824 12.3379C24.1094 10.4238 26.2969 7.48438 26.5703 7.07422ZM10.7793 4.81836C6.74609 6.73242 3.73828 10.4922 2.78125 14.9355C3.46484 15.0039 9.41211 15.0039 16.1797 13.2266C13.7871 8.91992 11.1895 5.36523 10.7793 4.81836ZM2.50781 17.9434C2.50781 21.6348 3.875 25.0527 6.19922 27.582C8.52344 23.6172 13.3086 19.3789 18.5723 17.875C18.1621 17.0547 17.8203 16.2344 17.3418 15.4141C10.1641 17.6016 3.12305 17.5332 2.50781 17.4648C2.50781 17.6699 2.50781 17.8066 2.50781 17.9434ZM8.04492 29.3594C12.3516 32.709 17.957 33.2559 22.6055 31.2734C22.4004 29.9746 21.5801 25.5312 19.5293 20.2676C13.7188 22.25 9.61719 26.2832 8.04492 29.3594ZM25.0664 29.9062C28.2793 27.7188 30.6035 24.2324 31.2871 20.1992C30.7402 20.0625 26.7754 18.9004 22.2637 19.584C24.1094 24.8477 24.9297 29.0859 25.0664 29.9062Z" fill="#26235C"/>
</svg>
