<svg width="32" height="31" viewBox="0 0 32 31" fill="none" xmlns="http://www.w3.org/2000/svg">
<path d="M7.52344 31H1.16602V10.5605H7.52344V31ZM4.31055 7.82617C2.32812 7.82617 0.6875 6.11719 0.6875 4.06641C0.6875 2.08398 2.32812 0.443359 4.31055 0.443359C6.36133 0.443359 8.00195 2.08398 8.00195 4.06641C8.00195 6.11719 6.36133 7.82617 4.31055 7.82617ZM31.2441 31H24.9551V21.0879C24.9551 18.6953 24.8867 15.6875 21.6055 15.6875C18.3242 15.6875 17.8457 18.2168 17.8457 20.8828V31H11.4883V10.5605H17.5723V13.3633H17.6406C18.5293 11.791 20.5801 10.082 23.6562 10.082C30.082 10.082 31.3125 14.3203 31.3125 19.7891V31H31.2441Z" fill="#26235C"/>
</svg>
