<svg width="29" height="30" viewBox="0 0 29 30" fill="none" xmlns="http://www.w3.org/2000/svg">
<g clip-path="url(#clip0_2_99)">
<circle cx="14.0793" cy="15.0003" r="11.4206" fill="#2E90FA"/>
<path fill-rule="evenodd" clip-rule="evenodd" d="M19.4333 3.34475C19.9908 3.90225 19.9908 4.80614 19.4333 5.36364L8.66476 16.1322C8.10725 16.6897 7.20336 16.6897 6.64586 16.1322L2.69548 12.1818C2.13798 11.6243 2.13798 10.7204 2.69548 10.1629L13.464 -0.605627C14.0215 -1.16313 14.9254 -1.16313 15.4829 -0.605627L19.4333 3.34475Z" fill="white" fill-opacity="0.5"/>
<path fill-rule="evenodd" clip-rule="evenodd" d="M24.7366 18.5186C25.2941 19.0761 25.2941 19.98 24.7366 20.5375L15.3613 29.9128C14.8038 30.4703 13.8999 30.4703 13.3424 29.9128L8.51824 25.0886C7.96073 24.531 7.96074 23.6272 8.51824 23.0697L17.8935 13.6944C18.451 13.1369 19.3549 13.1369 19.9124 13.6944L24.7366 18.5186Z" fill="black" fill-opacity="0.3"/>
</g>
<defs>
<clipPath id="clip0_2_99">
<rect x="3" y="3.75" width="22.5" height="22.5" rx="11.25" fill="white"/>
</clipPath>
</defs>
</svg>
