<svg width="24" height="26" viewBox="0 0 24 26" fill="none" xmlns="http://www.w3.org/2000/svg">
<g filter="url(#filter0_d_2_65)">
<path fill-rule="evenodd" clip-rule="evenodd" d="M11.1666 15.8333C11.1666 16.7538 10.4205 17.5 9.49998 17.5C8.57951 17.5 7.83331 16.7538 7.83331 15.8333C7.83331 14.9128 8.57951 14.1667 9.49998 14.1667C10.4205 14.1667 11.1666 14.9128 11.1666 15.8333ZM17.8333 15.8333C17.8333 16.7538 17.0871 17.5 16.1666 17.5C15.2462 17.5 14.5 16.7538 14.5 15.8333C14.5 14.9128 15.2462 14.1667 16.1666 14.1667C17.0871 14.1667 17.8333 14.9128 17.8333 15.8333Z" fill="white" fill-opacity="0.7"/>
<path d="M5.33333 2.5C4.8731 2.5 4.5 2.8731 4.5 3.33333C4.5 3.79357 4.8731 4.16667 5.33333 4.16667H5.63366C6.03089 4.16667 6.37291 4.44705 6.45081 4.83657L7.71554 11.1602C7.87134 11.9392 8.55537 12.5 9.34984 12.5H16.7546C17.5299 12.5 18.2028 11.9654 18.3781 11.2102L19.464 6.53266C19.6459 5.74898 19.0509 5 18.2464 5H8.18317L8.08511 4.50971C7.8514 3.34115 6.82536 2.5 5.63366 2.5H5.33333Z" fill="white" fill-opacity="0.7"/>
</g>
<defs>
<filter id="filter0_d_2_65" x="-2" y="0" width="28" height="28" filterUnits="userSpaceOnUse" color-interpolation-filters="sRGB">
<feFlood flood-opacity="0" result="BackgroundImageFix"/>
<feColorMatrix in="SourceAlpha" type="matrix" values="0 0 0 0 0 0 0 0 0 0 0 0 0 0 0 0 0 0 127 0" result="hardAlpha"/>
<feOffset dy="4"/>
<feGaussianBlur stdDeviation="2"/>
<feComposite in2="hardAlpha" operator="out"/>
<feColorMatrix type="matrix" values="0 0 0 0 0 0 0 0 0 0 0 0 0 0 0 0 0 0 0.25 0"/>
<feBlend mode="normal" in2="BackgroundImageFix" result="effect1_dropShadow_2_65"/>
<feBlend mode="normal" in="SourceGraphic" in2="effect1_dropShadow_2_65" result="shape"/>
</filter>
</defs>
</svg>
