<svg width="51" height="56" viewBox="0 0 51 56" fill="none" xmlns="http://www.w3.org/2000/svg">
<g filter="url(#filter0_d_13_380)">
<path d="M35.353 17.327C38.4397 19.5413 42.2211 20.8442 46.3051 20.8442V12.9573C45.5322 12.9574 44.7613 12.8765 44.0051 12.7158V18.9239C39.9214 18.9239 36.1405 17.621 33.053 15.4068V31.5018C33.053 39.5533 26.5492 46.0799 18.5268 46.0799C15.5334 46.0799 12.7512 45.1717 10.4401 43.6141C13.0779 46.3209 16.7565 48 20.8263 48C28.8492 48 35.3534 41.4734 35.3534 33.4216V17.327H35.353V17.327ZM38.1904 9.37002C36.6129 7.64048 35.5772 5.40538 35.353 2.93438V1.91995H33.1735C33.7221 5.06059 35.5934 7.74377 38.1904 9.37002ZM15.5142 37.4356C14.6329 36.2759 14.1566 34.8572 14.1587 33.3985C14.1587 29.7161 17.1336 26.7303 20.8037 26.7303C21.4877 26.7301 22.1675 26.8352 22.8194 27.0428V18.9796C22.0576 18.8748 21.2888 18.8303 20.5203 18.8466V25.1226C19.868 24.9151 19.1878 24.8096 18.5037 24.8103C14.8335 24.8103 11.8589 27.7958 11.8589 31.4787C11.8589 34.0828 13.3458 36.3374 15.5142 37.4356Z" fill="#FF004F"/>
<path d="M33.0529 15.4067C36.1404 17.6209 39.9213 18.9237 44.005 18.9237V12.7156C41.7255 12.2283 39.7075 11.0328 38.1903 9.37002C35.5931 7.74361 33.722 5.06043 33.1733 1.91995H27.4482V33.4213C27.4352 37.0937 24.4655 40.0673 20.8032 40.0673C18.6451 40.0673 16.7279 39.0349 15.5136 37.4356C13.3454 36.3374 11.8585 34.0827 11.8585 31.4789C11.8585 27.7963 14.8331 24.8105 18.5032 24.8105C19.2064 24.8105 19.8842 24.9204 20.5199 25.1228V18.8468C12.6384 19.0102 6.2998 25.473 6.2998 33.4214C6.2998 37.3892 7.87827 40.9861 10.4401 43.6143C12.7513 45.1717 15.5335 46.08 18.5268 46.08C26.5494 46.08 33.0531 39.5531 33.0531 31.5018V15.4067H33.0529Z" fill="black"/>
<path d="M44.0051 12.7156V11.037C41.9495 11.0401 39.9343 10.4624 38.1903 9.36987C39.7342 11.0661 41.7671 12.2357 44.0051 12.7156ZM33.1734 1.91997C33.1211 1.61982 33.0809 1.3177 33.053 1.01443V0H25.148V31.5016C25.1354 35.1735 22.1658 38.1471 18.5033 38.1471C17.428 38.1471 16.4128 37.891 15.5137 37.4358C16.7279 39.0349 18.6452 40.0671 20.8033 40.0671C24.4652 40.0671 27.4354 37.0938 27.4482 33.4214V1.91997H33.1734ZM20.5203 18.8468V17.0598C19.8598 16.9692 19.1938 16.9237 18.5271 16.924C10.5038 16.9239 4 23.4508 4 31.5016C4 36.5491 6.55612 40.9974 10.4403 43.614C7.87848 40.986 6.30002 37.3889 6.30002 33.4213C6.30002 25.473 12.6385 19.0102 20.5203 18.8468Z" fill="#00F2EA"/>
</g>
<defs>
<filter id="filter0_d_13_380" x="-3" y="0" width="56" height="56" filterUnits="userSpaceOnUse" color-interpolation-filters="sRGB">
<feFlood flood-opacity="0" result="BackgroundImageFix"/>
<feColorMatrix in="SourceAlpha" type="matrix" values="0 0 0 0 0 0 0 0 0 0 0 0 0 0 0 0 0 0 127 0" result="hardAlpha"/>
<feOffset dy="4"/>
<feGaussianBlur stdDeviation="2"/>
<feComposite in2="hardAlpha" operator="out"/>
<feColorMatrix type="matrix" values="0 0 0 0 0 0 0 0 0 0 0 0 0 0 0 0 0 0 0.25 0"/>
<feBlend mode="normal" in2="BackgroundImageFix" result="effect1_dropShadow_13_380"/>
<feBlend mode="normal" in="SourceGraphic" in2="effect1_dropShadow_13_380" result="shape"/>
</filter>
</defs>
</svg>
