<svg width="36" height="30" viewBox="0 0 36 30" fill="none" xmlns="http://www.w3.org/2000/svg">
<path d="M31.877 7.76562C31.9225 7.94792 31.9453 8.24414 31.9453 8.6543C31.9453 11.0697 31.4896 13.485 30.5781 15.9004C29.6667 18.2702 28.3678 20.4577 26.6816 22.4629C25.041 24.4225 22.8991 26.0176 20.2559 27.248C17.6126 28.4785 14.696 29.0938 11.5059 29.0938C7.49544 29.0938 3.82682 28.0228 0.5 25.8809C1.0013 25.9264 1.57096 25.9492 2.20898 25.9492C5.53581 25.9492 8.52083 24.9238 11.1641 22.873C9.56901 22.873 8.15625 22.4173 6.92578 21.5059C5.74089 20.5488 4.92057 19.3639 4.46484 17.9512C4.92057 17.9967 5.35352 18.0195 5.76367 18.0195C6.40169 18.0195 7.03971 17.9512 7.67773 17.8145C6.58398 17.5866 5.60417 17.1309 4.73828 16.4473C3.8724 15.7637 3.1888 14.9434 2.6875 13.9863C2.1862 12.9837 1.93555 11.9128 1.93555 10.7734V10.6367C2.93815 11.2292 4.00911 11.5482 5.14844 11.5938C3.00651 10.1354 1.93555 8.13021 1.93555 5.57812C1.93555 4.30208 2.27734 3.0944 2.96094 1.95508C4.73828 4.18815 6.90299 5.96549 9.45508 7.28711C12.0527 8.60872 14.8099 9.33789 17.7266 9.47461C17.6354 8.92773 17.5898 8.38086 17.5898 7.83398C17.5898 5.87435 18.2734 4.18815 19.6406 2.77539C21.0534 1.36263 22.7396 0.65625 24.6992 0.65625C26.7956 0.65625 28.5501 1.4082 29.9629 2.91211C31.6035 2.5931 33.1302 2.02344 34.543 1.20312C33.9961 2.88932 32.9479 4.21094 31.3984 5.16797C32.7656 4.98568 34.1328 4.59831 35.5 4.00586C34.4974 5.46419 33.2897 6.71745 31.877 7.76562Z" fill="#26235C"/>
</svg>
