<svg width="20" height="20" viewBox="0 0 20 20" fill="none" xmlns="http://www.w3.org/2000/svg">
<path fill-rule="evenodd" clip-rule="evenodd" d="M2.5 7.83333C2.5 5.96649 2.5 5.03307 2.86331 4.32003C3.18289 3.69282 3.69282 3.18289 4.32003 2.86331C5.03307 2.5 5.96649 2.5 7.83333 2.5H12.1667C14.0335 2.5 14.9669 2.5 15.68 2.86331C16.3072 3.18289 16.8171 3.69282 17.1367 4.32003C17.5 5.03307 17.5 5.96649 17.5 7.83333V12.1667C17.5 14.0335 17.5 14.9669 17.1367 15.68C16.8171 16.3072 16.3072 16.8171 15.68 17.1367C14.9669 17.5 14.0335 17.5 12.1667 17.5H7.83333C5.96649 17.5 5.03307 17.5 4.32003 17.1367C3.69282 16.8171 3.18289 16.3072 2.86331 15.68C2.5 14.9669 2.5 14.0335 2.5 12.1667V7.83333ZM9.16667 13.3333C9.16667 12.8731 9.53976 12.5 10 12.5H13.3333C13.7936 12.5 14.1667 12.8731 14.1667 13.3333C14.1667 13.7936 13.7936 14.1667 13.3333 14.1667H10C9.53976 14.1667 9.16667 13.7936 9.16667 13.3333ZM10 9.16667C9.53976 9.16667 9.16667 9.53976 9.16667 10C9.16667 10.4602 9.53976 10.8333 10 10.8333H13.3333C13.7936 10.8333 14.1667 10.4602 14.1667 10C14.1667 9.53976 13.7936 9.16667 13.3333 9.16667H10ZM9.16667 6.66667C9.16667 6.20643 9.53976 5.83333 10 5.83333H13.3333C13.7936 5.83333 14.1667 6.20643 14.1667 6.66667C14.1667 7.1269 13.7936 7.5 13.3333 7.5H10C9.53976 7.5 9.16667 7.1269 9.16667 6.66667ZM6.66667 14.1667C7.1269 14.1667 7.5 13.7936 7.5 13.3333C7.5 12.8731 7.1269 12.5 6.66667 12.5C6.20643 12.5 5.83333 12.8731 5.83333 13.3333C5.83333 13.7936 6.20643 14.1667 6.66667 14.1667ZM7.5 10C7.5 10.4602 7.1269 10.8333 6.66667 10.8333C6.20643 10.8333 5.83333 10.4602 5.83333 10C5.83333 9.53976 6.20643 9.16667 6.66667 9.16667C7.1269 9.16667 7.5 9.53976 7.5 10ZM6.66667 7.5C7.1269 7.5 7.5 7.1269 7.5 6.66667C7.5 6.20643 7.1269 5.83333 6.66667 5.83333C6.20643 5.83333 5.83333 6.20643 5.83333 6.66667C5.83333 7.1269 6.20643 7.5 6.66667 7.5Z" fill="white" fill-opacity="0.7"/>
</svg>
