<svg width="18" height="15" viewBox="0 0 18 15" fill="none" xmlns="http://www.w3.org/2000/svg">
<path d="M8.58411 1.40601C4.74979 1.40601 1.63025 4.1397 1.63025 7.49976C1.63025 10.8598 4.74979 13.5935 8.58411 13.5935C12.4184 13.5935 15.538 10.8598 15.538 7.49976C15.538 4.1397 12.4184 1.40601 8.58411 1.40601ZM12.2031 5.45747L7.70986 10.145C7.66057 10.1964 7.59924 10.238 7.53002 10.2668C7.46081 10.2957 7.38532 10.3112 7.30867 10.3123H7.29965C7.22467 10.3122 7.15054 10.2984 7.08206 10.2716C7.01358 10.2449 6.95228 10.2058 6.90214 10.157L4.97646 8.28198C4.92755 8.23653 4.88951 8.18296 4.86456 8.12444C4.83962 8.06592 4.82827 8.00361 4.8312 7.94119C4.83412 7.87877 4.85125 7.8175 4.88159 7.76096C4.91192 7.70443 4.95485 7.65377 5.00784 7.61198C5.06083 7.57019 5.12282 7.53811 5.19017 7.51761C5.25751 7.49712 5.32885 7.48862 5.4 7.49263C5.47114 7.49664 5.54065 7.51308 5.60444 7.54096C5.66824 7.56885 5.72503 7.60763 5.77147 7.65503L7.28561 9.12925L11.384 4.85454C11.476 4.7614 11.606 4.7037 11.7461 4.69392C11.8862 4.68414 12.0251 4.72306 12.1327 4.80226C12.2403 4.88147 12.308 4.99461 12.3212 5.11721C12.3343 5.23981 12.2919 5.36204 12.2031 5.45747V5.45747Z" fill="#01B574"/>
</svg>
