<svg width="27" height="23" viewBox="0 0 27 23" fill="none" xmlns="http://www.w3.org/2000/svg">
<path d="M5.28443 4.81816H21.3318C21.5192 4.81809 21.7065 4.82851 21.8924 4.84937C21.8294 4.46167 21.6774 4.08917 21.4457 3.75433C21.214 3.41949 20.9072 3.12925 20.544 2.9011C20.1808 2.67294 19.7686 2.51161 19.3323 2.42683C18.8961 2.34204 18.4447 2.33556 18.0055 2.40776L4.80802 4.38223H4.79298C3.96457 4.52105 3.22789 4.93178 2.7334 5.53052C3.47839 5.06616 4.3702 4.81713 5.28443 4.81816V4.81816Z" fill="white"/>
<path d="M21.332 5.87476H5.28467C4.43375 5.87557 3.61795 6.17215 3.01625 6.69942C2.41456 7.22669 2.07612 7.94158 2.0752 8.68725V17.1248C2.07612 17.8704 2.41456 18.5853 3.01625 19.1126C3.61795 19.6399 4.43375 19.9364 5.28467 19.9372H21.332C22.1829 19.9364 22.9987 19.6399 23.6004 19.1126C24.2021 18.5853 24.5406 17.8704 24.5415 17.1248V8.68725C24.5406 7.94158 24.2021 7.22669 23.6004 6.69942C22.9987 6.17215 22.1829 5.87557 21.332 5.87476V5.87476ZM18.95 14.3123C18.6326 14.3123 18.3224 14.2298 18.0585 14.0753C17.7946 13.9207 17.5889 13.7011 17.4674 13.4442C17.346 13.1872 17.3142 12.9044 17.3761 12.6317C17.438 12.3589 17.5909 12.1083 17.8153 11.9116C18.0397 11.715 18.3256 11.581 18.6369 11.5268C18.9482 11.4725 19.2709 11.5004 19.5641 11.6068C19.8573 11.7132 20.108 11.8935 20.2843 12.1247C20.4606 12.356 20.5547 12.6279 20.5547 12.906C20.5547 13.279 20.3857 13.6366 20.0847 13.9004C19.7838 14.1641 19.3756 14.3123 18.95 14.3123Z" fill="white"/>
<path d="M2.10022 11.6514V7.27881C2.10022 6.32651 2.702 4.72998 4.79066 4.38413C6.56339 4.09277 8.31857 4.09277 8.31857 4.09277C8.31857 4.09277 9.47198 4.7959 8.51916 4.7959C7.56635 4.7959 7.59143 5.87256 8.51916 5.87256C9.4469 5.87256 8.51916 6.90527 8.51916 6.90527L4.78314 10.6187L2.10022 11.6514Z" fill="white"/>
</svg>
