<svg width="27" height="23" viewBox="0 0 27 23" fill="none" xmlns="http://www.w3.org/2000/svg">
<path d="M13.6388 2.35864C7.87829 2.35864 3.20801 6.45127 3.20801 11.4993C3.20801 16.5473 7.87829 20.6399 13.6388 20.6399C19.3993 20.6399 24.0696 16.5473 24.0696 11.4993C24.0696 6.45127 19.3993 2.35864 13.6388 2.35864Z" fill="white" stroke="#0075FF" stroke-width="0.75" stroke-miterlimit="10"/>
<path d="M13.6387 2.35864C10.7266 2.35864 7.98853 6.45127 7.98853 11.4993C7.98853 16.5473 10.7266 20.6399 13.6387 20.6399C16.5508 20.6399 19.2889 16.5473 19.2889 11.4993C19.2889 6.45127 16.5508 2.35864 13.6387 2.35864Z" fill="white" stroke="#0075FF" stroke-width="0.75" stroke-miterlimit="10"/>
<path d="M6.68481 5.40552C8.60247 6.59863 11.0166 7.31011 13.6388 7.31011C16.2611 7.31011 18.6752 6.59863 20.5929 5.40552" fill="white"/>
<path d="M6.68481 5.40552C8.60247 6.59863 11.0166 7.31011 13.6388 7.31011C16.2611 7.31011 18.6752 6.59863 20.5929 5.40552" stroke="#0075FF" stroke-width="0.75" stroke-linecap="round" stroke-linejoin="round"/>
<path d="M20.5929 17.5944C18.6752 16.4013 16.2611 15.6898 13.6388 15.6898C11.0166 15.6898 8.60247 16.4013 6.68481 17.5944" stroke="#0075FF" stroke-width="0.75" stroke-linecap="round" stroke-linejoin="round"/>
<path d="M13.6388 2.35864V20.6399" stroke="#0075FF" stroke-width="0.75" stroke-miterlimit="10"/>
<path d="M24.0696 11.499H3.20801" stroke="#0075FF" stroke-width="0.75" stroke-miterlimit="10"/>
</svg>
