<svg width="15" height="13" viewBox="0 0 15 13" fill="none" xmlns="http://www.w3.org/2000/svg">
<path d="M13.4311 1.18465C13.426 1.16306 13.414 1.14319 13.3964 1.12736C13.3789 1.11154 13.3566 1.10041 13.3322 1.0953C11.7004 0.745689 7.9301 1.99154 5.88741 3.78084C5.52308 4.09753 5.19094 4.44144 4.89476 4.80868C4.26484 4.75985 3.63493 4.80062 3.09806 5.0057C1.58332 5.58993 1.14229 7.11434 1.01943 7.7701C1.01246 7.80599 1.01509 7.84281 1.02711 7.87766C1.03913 7.91252 1.06021 7.94445 1.0887 7.97095C1.11719 7.99745 1.1523 8.0178 1.19128 8.0304C1.23027 8.04299 1.27205 8.04749 1.31335 8.04354L3.74581 7.80843C3.74755 7.96914 3.75861 8.12966 3.77896 8.28939C3.7912 8.4003 3.84739 8.50396 3.93777 8.58236L4.87971 9.40584C4.96925 9.48494 5.0875 9.53415 5.21403 9.545C5.39528 9.56277 5.57744 9.57247 5.75981 9.57405L5.49291 11.703C5.48846 11.7391 5.49363 11.7757 5.50802 11.8099C5.52242 11.844 5.54564 11.8748 5.57587 11.8997C5.6061 11.9247 5.64251 11.9431 5.68226 11.9537C5.722 11.9642 5.76399 11.9666 5.80494 11.9605C6.55187 11.8555 8.29451 11.4691 8.9573 10.1417C9.19132 9.67122 9.23924 9.12191 9.1852 8.57259C9.60528 8.31303 9.99875 8.02189 10.3612 7.70247C12.4103 5.91585 13.8239 2.68563 13.4311 1.18465ZM8.3168 5.57113C8.12969 5.40727 8.00224 5.19846 7.95057 4.97112C7.8989 4.74378 7.92533 4.50811 8.02652 4.29393C8.12771 4.07976 8.29911 3.89669 8.51905 3.76789C8.73898 3.63909 8.99756 3.57034 9.26209 3.57034C9.52662 3.57034 9.7852 3.63909 10.0051 3.76789C10.2251 3.89669 10.3965 4.07976 10.4977 4.29393C10.5988 4.50811 10.6253 4.74378 10.5736 4.97112C10.5219 5.19846 10.3945 5.40727 10.2074 5.57113C10.0833 5.68001 9.93595 5.76639 9.77375 5.82532C9.61155 5.88426 9.43768 5.91459 9.26209 5.91459C9.0865 5.91459 8.91263 5.88426 8.75043 5.82532C8.58822 5.76639 8.44087 5.68001 8.3168 5.57113Z" fill="white"/>
<path d="M4.81577 10.0023C4.6631 10.1364 4.41821 10.1886 4.12345 10.2333C3.46122 10.3322 2.87644 9.83069 2.9954 9.24402C3.04081 9.02161 3.17509 8.70984 3.25867 8.6366C3.27694 8.6209 3.2891 8.60055 3.29343 8.57845C3.29775 8.55635 3.29402 8.53362 3.28276 8.51348C3.2715 8.49335 3.25329 8.47683 3.23071 8.46628C3.20814 8.45573 3.18234 8.45168 3.15699 8.45471C2.78666 8.49442 2.44214 8.64155 2.17826 8.87268C1.52328 9.44714 1.46143 11.5787 1.46143 11.5787C1.46143 11.5787 3.89528 11.5245 4.55026 10.9501C4.81484 10.719 4.98295 10.4167 5.02751 10.0917C5.03781 9.98962 4.89601 9.92883 4.81577 10.0023Z" fill="white"/>
</svg>
