<svg width="31" height="30" viewBox="0 0 31 30" fill="none" xmlns="http://www.w3.org/2000/svg">
<g clip-path="url(#clip0_26_1029)">
<path d="M15.6417 2.5C8.74167 2.5 3.15417 8.1 3.15417 15C3.15417 21.9 8.74167 27.5 15.6417 27.5C22.5542 27.5 28.1542 21.9 28.1542 15C28.1542 8.1 22.5542 2.5 15.6417 2.5ZM15.6542 25C10.1292 25 5.65417 20.525 5.65417 15C5.65417 9.475 10.1292 5 15.6542 5C21.1792 5 25.6542 9.475 25.6542 15C25.6542 20.525 21.1792 25 15.6542 25ZM20.0292 13.75C21.0667 13.75 21.9042 12.9125 21.9042 11.875C21.9042 10.8375 21.0667 10 20.0292 10C18.9917 10 18.1542 10.8375 18.1542 11.875C18.1542 12.9125 18.9917 13.75 20.0292 13.75ZM11.2792 13.75C12.3167 13.75 13.1542 12.9125 13.1542 11.875C13.1542 10.8375 12.3167 10 11.2792 10C10.2417 10 9.40417 10.8375 9.40417 11.875C9.40417 12.9125 10.2417 13.75 11.2792 13.75ZM15.6542 21.875C18.1917 21.875 20.4042 20.4875 21.5917 18.4375C21.8292 18.025 21.5292 17.5 21.0417 17.5H10.2667C9.79167 17.5 9.47917 18.025 9.71667 18.4375C10.9042 20.4875 13.1167 21.875 15.6542 21.875Z" fill="white"/>
</g>
<defs>
<clipPath id="clip0_26_1029">
<rect width="30" height="30" fill="white" transform="translate(0.62915)"/>
</clipPath>
</defs>
</svg>
