<svg width="26" height="23" viewBox="0 0 26 23" fill="none" xmlns="http://www.w3.org/2000/svg">
<path d="M14.5485 10.1057H21.5692C21.6197 10.1057 21.668 10.1233 21.7033 10.1543C21.7386 10.1852 21.7581 10.2268 21.7581 10.2698V18.5315C21.7581 19.2738 21.4216 19.986 20.822 20.5114C20.2224 21.0369 19.4089 21.3323 18.5603 21.3323H7.32715C6.47859 21.3323 5.66504 21.0369 5.06543 20.5114C4.46587 19.986 4.12939 19.2738 4.12939 18.5315V4.46899C4.12939 3.72672 4.46587 3.01447 5.06543 2.48907C5.66504 1.96362 6.47859 1.66821 7.32715 1.66821H11.9408C11.9913 1.66821 12.0395 1.68583 12.0749 1.71679C12.1102 1.74772 12.1296 1.7893 12.1296 1.83228V7.98462C12.1296 8.5477 12.3849 9.08736 12.8387 9.48498C13.2924 9.88257 13.9074 10.1057 14.5485 10.1057ZM8.93188 17.137H16.9556C17.171 17.137 17.3779 17.062 17.5307 16.9281C17.6835 16.7942 17.7697 16.6122 17.7697 16.4221C17.7697 16.232 17.6835 16.05 17.5307 15.9161C17.3779 15.7823 17.171 15.7073 16.9556 15.7073H8.93188C8.71644 15.7073 8.50956 15.7823 8.3568 15.9161C8.204 16.05 8.1178 16.232 8.1178 16.4221C8.1178 16.6122 8.204 16.7942 8.3568 16.9281C8.50956 17.062 8.71644 17.137 8.93188 17.137ZM8.93188 13.6213H16.9556C17.171 13.6213 17.3779 13.5463 17.5307 13.4125C17.6835 13.2786 17.7697 13.0966 17.7697 12.9065C17.7697 12.7164 17.6835 12.5344 17.5307 12.4005C17.3779 12.2666 17.171 12.1916 16.9556 12.1916H8.93188C8.71644 12.1916 8.50956 12.2666 8.3568 12.4005C8.204 12.5344 8.1178 12.7164 8.1178 12.9065C8.1178 13.0966 8.204 13.2786 8.3568 13.4125C8.50956 13.5463 8.71644 13.6213 8.93188 13.6213Z" fill="white" stroke="#0075FF" stroke-width="0.0234375"/>
<path d="M13.9094 2.22799C13.9094 2.22799 13.9094 2.22799 13.9094 2.228L21.1211 8.54773C21.1334 8.5585 21.1415 8.57201 21.1447 8.58644C21.148 8.60084 21.1463 8.61579 21.1398 8.62949C21.1334 8.64321 21.1223 8.6552 21.1077 8.66376C21.0932 8.67233 21.0759 8.67701 21.0581 8.67707H14.5485C14.3383 8.67707 14.137 8.6039 13.9888 8.47404C13.8407 8.34422 13.7578 8.1685 13.7578 7.98567V2.28115C13.7579 2.26652 13.7629 2.25207 13.7724 2.23962C13.782 2.22714 13.7957 2.21721 13.8121 2.21129C13.8284 2.20537 13.8464 2.2038 13.8638 2.20682C13.8813 2.20984 13.8971 2.21727 13.9094 2.22799Z" fill="white" stroke="#0075FF" stroke-width="0.0234375"/>
</svg>
