<svg width="17" height="4" viewBox="0 0 17 4" fill="none" xmlns="http://www.w3.org/2000/svg">
<path d="M2.12329 0C1.02329 0 0.123291 0.9 0.123291 2C0.123291 3.1 1.02329 4 2.12329 4C3.22329 4 4.12329 3.1 4.12329 2C4.12329 0.9 3.22329 0 2.12329 0ZM14.1233 0C13.0233 0 12.1233 0.9 12.1233 2C12.1233 3.1 13.0233 4 14.1233 4C15.2233 4 16.1233 3.1 16.1233 2C16.1233 0.9 15.2233 0 14.1233 0ZM8.12329 0C7.02329 0 6.12329 0.9 6.12329 2C6.12329 3.1 7.02329 4 8.12329 4C9.22329 4 10.1233 3.1 10.1233 2C10.1233 0.9 9.22329 0 8.12329 0Z" fill="#7551FF"/>
</svg>
